<svg xmlns="http://www.w3.org/2000/svg" xmlns:xlink="http://www.w3.org/1999/xlink" width="17.5008544921875" height="17.498071670532227" viewBox="0 0 17.5008544921875 17.498071670532227" fill="none">
<path d="M0.835292 16.3444C0.835292 16.5213 0.982937 16.6647 1.16508 16.6647L16.3347 16.6647C16.5168 16.6647 16.6645 16.5213 16.6645 16.3444L16.6645 15.9619C16.6721 15.8466 16.6875 15.2712 16.3082 14.6351C16.0691 14.234 15.722 13.8875 15.2766 13.6053C14.7377 13.2638 14.0523 13.0164 13.2232 12.8674C13.2171 12.8667 12.6023 12.7852 11.9725 12.6243C10.8758 12.3442 10.7799 12.0963 10.7793 12.0939C10.7729 12.0694 10.7635 12.0458 10.7516 12.0237C10.7426 11.9774 10.7204 11.8034 10.7628 11.3371C10.8704 10.1527 11.5057 9.45266 12.0162 8.89024C12.1772 8.71286 12.3293 8.54532 12.4464 8.38103C12.9515 7.67228 12.9984 6.86636 13.0005 6.81641C13.0005 6.7152 12.9889 6.63199 12.964 6.55486C12.9144 6.40053 12.8212 6.30436 12.753 6.23416L12.7526 6.23366C12.7354 6.21599 12.7192 6.19924 12.7059 6.18386C12.7009 6.17799 12.6875 6.16245 12.6997 6.08266C12.7445 5.78895 12.7714 5.54303 12.7844 5.30874C12.8074 4.89132 12.8253 4.26707 12.7177 3.65953C12.7044 3.55578 12.6815 3.4462 12.646 3.31566C12.5322 2.8973 12.3495 2.53962 12.0956 2.24442C12.0519 2.19691 10.9902 1.07841 7.90824 0.848909C7.48207 0.81718 7.06078 0.834272 6.64607 0.855468C6.54612 0.860409 6.40924 0.867192 6.28116 0.90038C5.96295 0.982809 5.87803 1.1845 5.85574 1.29738C5.81878 1.48436 5.88374 1.6298 5.9267 1.72606C5.93295 1.74004 5.94066 1.75729 5.9272 1.80223C5.85566 1.91302 5.74312 2.01291 5.62837 2.10754C5.5952 2.13573 4.82237 2.80211 4.77987 3.67261C4.66528 4.33466 4.67395 5.36616 4.80945 6.07907C4.81732 6.11845 4.82895 6.17674 4.81007 6.21611C4.66437 6.3467 4.4992 6.4947 4.49962 6.83241C4.50137 6.86636 4.54824 7.67228 5.05341 8.38103C5.17041 8.5452 5.32232 8.71261 5.4832 8.88986L5.48357 8.89024C5.99407 9.4527 6.62937 10.1527 6.73699 11.337C6.77932 11.8034 6.75716 11.9774 6.7482 12.0237C6.73624 12.0458 6.72691 12.0693 6.72049 12.0938C6.71982 12.0962 6.62432 12.3434 5.53257 12.6229C4.90274 12.7842 4.2827 12.8666 4.2642 12.8693C3.45849 13.0053 2.77723 13.2465 2.23937 13.5862C1.79546 13.8666 1.44772 14.2137 1.20578 14.6179C0.819229 15.2639 0.829679 15.8521 0.835292 15.9595L0.835292 16.3444Z" stroke="rgba(255, 255, 255, 1)" stroke-width="1.6666666666666667" stroke-linejoin="round"  >
</path>
</svg>
