<?xml version="1.0" encoding="UTF-8"?>
<!--
  ~ Licensed to the Apache Software Foundation (ASF) under one
  ~ or more contributor license agreements.  See the NOTICE file
  ~ distributed with this work for additional information
  ~ regarding copyright ownership.  The ASF licenses this file
  ~ to you under the Apache License, Version 2.0 (the
  ~ "License"); you may not use this file except in compliance
  ~ with the License.  You may obtain a copy of the License at
  ~
  ~   http://www.apache.org/licenses/LICENSE-2.0
  ~
  ~ Unless required by applicable law or agreed to in writing,
  ~ software distributed under the License is distributed on an
  ~ "AS IS" BASIS, WITHOUT WARRANTIES OR CONDITIONS OF ANY
  ~ KIND, either express or implied.  See the License for the
  ~ specific language governing permissions and limitations
  ~ under the License.
-->
<svg xmlns="http://www.w3.org/2000/svg" xmlns:xlink="http://www.w3.org/1999/xlink" width="180.00015258789062"
  height="30" viewBox="0 0 180.00015258789062 30" fill="none">
  <path
    d="M19.2294 21.6913C17.363 21.6913 16.0815 24.0504 16.0815 24.0504L16.0815 29.2344L21.9753 29.4561L21.9753 24.2689C21.9753 24.2689 21.0957 21.6913 19.2294 21.6913Z"
    fill="#221F20">
  </path>
  <path
    d="M0 12.8259C0.604261 12.8259 1.21001 12.8259 1.81427 12.8131C2.46318 12.8035 3.11358 12.7988 3.76101 12.762C5.07966 12.6839 6.39981 12.6233 7.71252 12.4877C8.11575 12.4513 8.51751 12.4011 8.91777 12.3371C9.31802 12.2731 9.716 12.1954 10.1117 12.1041C10.5073 12.0127 10.8998 11.9079 11.2891 11.7897C11.6785 11.6713 12.0639 11.5398 12.4454 11.3951C13.9531 10.8033 15.3238 9.94515 16.4297 8.5686C16.5173 8.46184 16.6027 8.35322 16.6862 8.24273C16.7696 8.13214 16.8509 8.01975 16.9299 7.90555C17.0089 7.79143 17.0856 7.67557 17.1601 7.55796C17.2347 7.44036 17.307 7.32116 17.3768 7.20035C17.4466 7.07955 17.5142 6.95721 17.5794 6.83332C17.6444 6.70943 17.7072 6.58419 17.7675 6.45754C17.8278 6.33099 17.8855 6.20306 17.9409 6.07375C17.9961 5.94455 18.049 5.81418 18.0991 5.68264C18.1494 5.55111 18.197 5.41845 18.2421 5.28467C18.2872 5.151 18.3297 5.01638 18.3695 4.88079C18.4093 4.74521 18.4465 4.60879 18.481 4.4715C18.5155 4.33421 18.5474 4.19625 18.5767 4.05758C18.6059 3.91892 18.6324 3.77967 18.656 3.63983C18.6799 3.49989 18.7008 3.35953 18.7192 3.21874C18.7375 3.07795 18.7531 2.93683 18.7659 2.7954C18.7787 2.65387 18.7888 2.51211 18.7961 2.37017C18.8363 1.68427 18.8065 0.990417 18.7961 0.296564C18.7961 0.00625996 18.7842 -0.0224502 19.0238 0.0110401C19.5909 0.0955836 20.1535 0.205645 20.716 0.314108C20.7247 0.316445 20.7332 0.319161 20.7415 0.322237C20.75 0.325323 20.7582 0.32878 20.7662 0.332606C20.7744 0.336441 20.7823 0.340588 20.79 0.345048C20.7979 0.349622 20.8055 0.35451 20.8128 0.359729C20.8202 0.364937 20.8274 0.370467 20.8344 0.376318C20.8414 0.382159 20.8482 0.388332 20.8546 0.394816C20.861 0.4013 20.8673 0.408056 20.8732 0.415075C20.8792 0.422094 20.8848 0.429376 20.8903 0.436932C20.8957 0.444477 20.9007 0.452237 20.9055 0.460218C20.9103 0.468192 20.9147 0.47638 20.9189 0.484782C20.9231 0.493184 20.9269 0.501741 20.9304 0.510465C20.9338 0.519177 20.9369 0.528057 20.9397 0.537101C20.9426 0.546135 20.9449 0.555229 20.947 0.56437C20.949 0.573628 20.9508 0.582926 20.9521 0.592292C20.9534 0.601754 20.9543 0.611217 20.9549 0.620681C20.9555 0.630143 20.9558 0.639607 20.9557 0.649069C20.9973 1.13716 21.237 1.36207 21.6284 1.45618C22.441 1.65077 23.2492 1.87089 24.0603 2.07506C24.358 2.14844 24.6423 2.20745 24.9355 2.30954C24.8491 2.33029 24.7613 2.34782 24.675 2.37175C23.9115 2.58868 23.1509 2.82634 22.3815 3.00977C22.2379 3.03211 22.0935 3.04327 21.9484 3.04327C21.8033 3.04327 21.6589 3.03211 21.5153 3.00977C21.4919 3.00583 21.4688 3.0002 21.4462 2.99287C21.4236 2.98553 21.4016 2.97661 21.38 2.96607C21.3584 2.95554 21.3377 2.94353 21.3176 2.93002C21.2977 2.91651 21.2786 2.90163 21.2605 2.88536C21.2423 2.86899 21.2253 2.85145 21.2094 2.83272C21.1935 2.81401 21.1788 2.79418 21.1654 2.77323C21.1518 2.75239 21.1398 2.73064 21.1292 2.70799C21.1185 2.68534 21.1093 2.66205 21.1015 2.63812C20.7815 1.93789 20.8306 2.06549 20.2308 2.20586C19.9243 2.27764 19.6251 2.38929 19.3185 2.47066C19.2128 2.49937 19.192 2.54401 19.2084 2.66843C19.5313 5.23331 20.466 7.42972 22.1002 9.1827C22.2877 9.37837 22.4831 9.56447 22.6863 9.74098C22.8896 9.91762 23.0999 10.084 23.3173 10.2401C23.5348 10.3962 23.7583 10.5413 23.9881 10.6755C24.2178 10.8098 24.4528 10.9327 24.6929 11.0442C25.0262 11.2013 25.3642 11.3461 25.707 11.4783C26.0498 11.6106 26.3962 11.7301 26.7467 11.8368C27.0971 11.9435 27.4504 12.0372 27.8069 12.1178C28.1633 12.1985 28.5219 12.266 28.8825 12.3202C30.3536 12.5608 31.833 12.7 33.3207 12.7381C34.1244 12.7605 34.9266 12.7764 35.7303 12.7939C36.4387 12.8083 37.1487 12.8179 37.8586 12.8322C37.8958 12.8322 37.933 12.8322 38 12.845C37.9866 13.0619 37.9807 13.2725 37.9598 13.483C37.8646 14.413 37.6294 15.2727 37.04 15.9522C36.9936 16.0046 36.9454 16.0552 36.8955 16.104C36.8457 16.1528 36.7943 16.1997 36.7415 16.2445C36.6885 16.2894 36.6342 16.3321 36.5784 16.3728C36.5225 16.4136 36.4654 16.4521 36.407 16.4883C36.3487 16.5246 36.2892 16.5588 36.2286 16.5905C36.168 16.6224 36.1064 16.6518 36.0437 16.6787C35.9811 16.7058 35.9177 16.7306 35.8535 16.7527C35.7894 16.7751 35.7245 16.7947 35.6589 16.8119C35.6444 16.8145 35.6301 16.8184 35.6163 16.8235C35.6025 16.8287 35.5891 16.835 35.5761 16.8427C35.5633 16.8503 35.5511 16.859 35.5396 16.8687C35.5282 16.8786 35.5175 16.8893 35.5076 16.9011C35.4978 16.9129 35.489 16.9253 35.4812 16.9386C35.4733 16.952 35.4666 16.966 35.4611 16.9805C35.4554 16.995 35.4509 17.01 35.4477 17.0253C35.4444 17.0406 35.4423 17.0563 35.4416 17.0719C35.2545 18.1446 35.1399 19.226 35.0978 20.3163C35.0522 21.6155 35.0954 22.9111 35.2272 24.2035C35.3456 25.4609 35.5599 26.6991 35.8702 27.9184C35.8791 27.9551 35.8836 27.9934 35.897 28.0588C35.6946 28.1082 35.4981 28.1593 35.3017 28.2055C33.413 28.6505 31.5109 29.003 29.5969 29.2471C28.2038 29.4257 26.8078 29.5916 25.4102 29.7176C24.2478 29.8213 23.081 29.8628 21.9171 29.925C21.4215 29.9521 20.9274 29.9585 20.4288 29.976C20.3743 29.9811 20.3203 29.9891 20.2666 30L17.3614 30C17.2914 30 17.2125 29.9792 17.15 29.976C15.9683 29.9234 14.7851 29.9075 13.6063 29.8165C11.923 29.6778 10.2412 29.5087 8.56384 29.2981C6.51282 29.0282 4.48423 28.6279 2.47807 28.097C2.36347 28.0667 2.34412 28.0205 2.36644 27.8865C2.61986 26.4152 2.80242 24.934 2.91415 23.4426C3.02934 22.0123 3.04918 20.5804 2.97368 19.1471C2.93201 18.4788 2.85015 17.8136 2.79359 17.1453C2.78169 17.0049 2.73406 16.9507 2.61499 16.9268C2.51338 16.9076 2.41307 16.8826 2.31405 16.8516C2.21493 16.8208 2.11764 16.7845 2.02219 16.7425C1.92675 16.7006 1.83367 16.6532 1.74298 16.6006C1.65219 16.5479 1.56434 16.4903 1.4794 16.4275C0.690584 15.8342 0.255992 14.9696 0.0773914 13.9073C0.0607223 13.8397 0.0374059 13.7748 0.00743983 13.7127L0 12.8259ZM19.6311 8.57498L19.7397 8.86848C19.8233 9.10115 19.9146 9.33036 20.0133 9.55611C20.1121 9.78197 20.2182 10.0038 20.3318 10.2214C20.4452 10.4391 20.5657 10.6522 20.6933 10.8607C20.8208 11.0692 20.9552 11.2727 21.0962 11.471C21.2371 11.6693 21.3846 11.8621 21.5383 12.0492C21.6921 12.2364 21.8519 12.4174 22.0177 12.5923C22.1835 12.7674 22.3548 12.9358 22.5318 13.0977C22.7088 13.2596 22.8908 13.4147 23.078 13.5628C24.5336 14.7064 26.1514 15.3716 27.8511 15.7735C28.756 15.9857 29.6758 16.1133 30.5896 16.268C30.6012 16.2693 30.6127 16.2717 30.6238 16.2748C30.635 16.278 30.646 16.2822 30.6566 16.2873C30.6672 16.2924 30.6774 16.2985 30.6871 16.3053C30.6968 16.3122 30.706 16.3198 30.7145 16.3281C30.7231 16.3367 30.731 16.3458 30.7383 16.3554C30.7456 16.3653 30.752 16.3757 30.7576 16.3865C30.7635 16.3973 30.7682 16.4087 30.7722 16.4203C30.7762 16.4321 30.7794 16.4441 30.7816 16.4562C31.0004 17.1086 31.4901 17.4755 32.0288 17.3989C32.0971 17.388 32.1647 17.374 32.2317 17.3566C32.2988 17.3392 32.3649 17.3187 32.4302 17.2949C32.4956 17.2711 32.5597 17.2442 32.6227 17.2142C32.6856 17.1842 32.7474 17.1513 32.8077 17.1153C32.8679 17.0794 32.9264 17.0406 32.9834 16.9988C33.0404 16.9574 33.0957 16.913 33.1488 16.866C33.2021 16.8191 33.2533 16.7696 33.3024 16.7176C33.3514 16.6658 33.3982 16.6116 33.4427 16.5551C33.5249 16.4647 33.6009 16.3686 33.671 16.267C33.741 16.1656 33.8043 16.0593 33.8607 15.9485C33.9171 15.8378 33.9663 15.7235 34.0082 15.6054C34.0501 15.4875 34.0844 15.367 34.111 15.244C34.1408 15.0845 34.1244 15.0175 33.9622 15.0207C33.7745 15.0263 33.5874 15.0167 33.4011 14.992C31.8993 14.799 30.3946 14.6107 28.8944 14.4018C28.2336 14.3093 27.5549 14.2423 26.9239 14.0461C24.3118 13.2262 22.1731 11.5514 20.5657 8.98173C20.4644 8.81967 20.3673 8.65474 20.2746 8.48693C20.1819 8.31902 20.0936 8.14852 20.0098 7.97539C19.926 7.80228 19.8467 7.62678 19.772 7.44886C19.6974 7.27107 19.6275 7.09113 19.5621 6.90909C19.4968 6.72693 19.4364 6.54302 19.3806 6.35735C19.3248 6.1717 19.274 5.98449 19.228 5.79573C19.182 5.60698 19.1411 5.41701 19.1051 5.22581C19.0689 5.03461 19.038 4.84253 19.0119 4.64951C19.0021 4.60571 18.9887 4.56317 18.9717 4.5219L18.9286 4.5219C18.9137 4.57135 18.8943 4.6192 18.8839 4.66865C18.7857 5.16472 18.7083 5.66876 18.5862 6.15685C17.9909 8.5383 16.8003 10.4125 15.0143 11.7572C13.7402 12.7142 12.3442 13.3299 10.8901 13.7813C10.1131 14.0105 9.32884 14.206 8.53735 14.3678C7.74575 14.5298 6.94941 14.6575 6.14828 14.7511C5.4324 14.8452 4.71502 14.9298 3.99765 15.0111C3.87412 15.0255 3.825 15.0829 3.85775 15.2185C3.89406 15.4128 3.94615 15.602 4.01402 15.7863C4.05014 15.8717 4.09008 15.9549 4.13383 16.0359C4.17769 16.1171 4.22517 16.1957 4.27627 16.2717C4.32736 16.3477 4.38189 16.4208 4.43983 16.491C4.49768 16.5613 4.55865 16.6283 4.62275 16.692C4.68685 16.7558 4.75377 16.8159 4.82352 16.8725C4.89318 16.9291 4.96532 16.9819 5.03993 17.0307C5.11454 17.0797 5.19124 17.1245 5.27002 17.1652C5.34871 17.206 5.42912 17.2424 5.51128 17.2745C6.21228 17.5616 6.89096 17.2952 7.21542 16.5679C7.22435 16.5439 7.23481 16.5208 7.24682 16.4985C7.25892 16.4761 7.27242 16.4549 7.2873 16.4347C7.30229 16.4146 7.31856 16.3956 7.33612 16.3779C7.35358 16.3603 7.37218 16.3441 7.39193 16.3294C7.41168 16.3147 7.43231 16.3015 7.45385 16.29C7.47538 16.2785 7.4976 16.2688 7.52052 16.2606C7.54334 16.2527 7.56662 16.2465 7.59033 16.242C7.61404 16.2377 7.63791 16.2351 7.66191 16.2345C8.90686 16.071 10.1357 15.8179 11.3485 15.4753C12.0793 15.2551 12.8086 15.0207 13.4664 14.5725C14.032 14.1849 14.5812 13.7669 15.1333 13.3522C15.2859 13.2393 15.4334 13.1193 15.5758 12.9922C15.7182 12.8652 15.8552 12.7315 15.9866 12.5914C16.118 12.4512 16.2433 12.3051 16.3625 12.153C16.4817 12.001 16.5944 11.8435 16.7005 11.6806C17.2691 10.8049 17.8555 9.93877 18.2543 8.9259C18.2536 8.98929 18.2453 9.05149 18.229 9.11252C18.0177 9.93229 17.7354 10.7229 17.3822 11.4844C17.3145 11.6315 17.2429 11.7764 17.1677 11.9192C17.0926 12.0621 17.014 12.2027 16.9317 12.3409C16.8494 12.4792 16.7635 12.6149 16.6743 12.7482C16.5852 12.8814 16.4926 13.012 16.3968 13.1399C16.3009 13.2677 16.2019 13.3927 16.0997 13.5148C15.9974 13.6368 15.8922 13.7558 15.784 13.8717C15.6758 13.9877 15.5646 14.1003 15.4506 14.2097C15.3366 14.3192 15.2199 14.4252 15.1006 14.5278C13.8965 15.5534 12.5377 16.1691 11.1044 16.579C10.8916 16.6396 10.6788 16.6971 10.4466 16.7609C10.4641 16.8462 10.486 16.9303 10.5121 17.0129C10.553 17.1258 10.5996 17.2359 10.6517 17.3434C10.7037 17.4509 10.761 17.555 10.8236 17.6559C10.8861 17.7567 10.9535 17.8536 11.0258 17.9466C11.0982 18.0398 11.175 18.1283 11.2562 18.2124C11.9453 18.9094 12.9187 19.0881 13.6926 18.4532C14.0695 18.1416 14.4313 17.8111 14.7782 17.4617C15.125 17.1124 15.4552 16.7459 15.7688 16.3621C16.0992 15.9617 16.4684 15.5901 16.6812 15.0717C16.9372 14.4496 17.2051 13.8339 17.4417 13.2023C17.7053 12.5291 17.939 11.8441 18.1426 11.1474C18.3462 10.4506 18.5188 9.74524 18.6607 9.03117C18.6708 8.98844 18.6831 8.94643 18.6979 8.90516C18.7162 8.97737 18.7221 9.05075 18.7157 9.12528C18.6279 10.2498 18.5595 11.3775 18.4463 12.4989C18.4059 12.9479 18.3512 13.395 18.2823 13.8402C18.2134 14.2853 18.1307 14.7274 18.0338 15.1665C17.9369 15.6056 17.8263 16.0407 17.702 16.4717C17.5776 16.9028 17.4398 17.3289 17.2884 17.7498C17.2787 17.7731 17.2701 17.7969 17.2628 17.8211C17.2554 17.8454 17.2491 17.8699 17.2442 17.8948C17.2393 17.9197 17.2356 17.9449 17.2331 17.9702C17.2305 17.9956 17.2292 18.021 17.2292 18.0465C17.2292 18.072 17.2305 18.0975 17.2331 18.1227C17.2356 18.1483 17.2393 18.1733 17.2442 18.1982C17.2491 18.2231 17.2554 18.2476 17.2628 18.2719C17.2701 18.2961 17.2787 18.3199 17.2884 18.3432C17.3227 18.4373 17.3624 18.5288 17.4075 18.6175C17.7706 19.2859 18.3258 19.5459 18.9673 19.5586C19.0024 19.5609 19.0375 19.5617 19.0728 19.5613C19.1079 19.561 19.143 19.5596 19.1782 19.557C19.2133 19.5545 19.2483 19.5505 19.2831 19.5454C19.3181 19.5404 19.3527 19.5342 19.3873 19.5269C19.4216 19.5195 19.4559 19.5111 19.49 19.5012C19.524 19.4916 19.5577 19.4808 19.591 19.4688C19.6244 19.4569 19.6574 19.4438 19.69 19.4296C19.7226 19.4154 19.7547 19.4001 19.7864 19.3836C19.8181 19.3674 19.8492 19.3498 19.88 19.3313C19.9107 19.3128 19.9408 19.2934 19.9702 19.2728C19.9999 19.2524 20.0287 19.2308 20.0569 19.2083C20.0851 19.1859 20.1127 19.1624 20.1396 19.1382C20.1666 19.1139 20.1926 19.0886 20.218 19.0624C20.2433 19.0362 20.2679 19.0093 20.2917 18.9815C20.3155 18.9538 20.3385 18.9252 20.3606 18.8959C20.3828 18.8665 20.4039 18.8365 20.4243 18.8057C20.44 18.786 20.4548 18.7656 20.4691 18.7447C20.4836 18.7239 20.4973 18.7025 20.5102 18.6807C20.5232 18.6588 20.5355 18.6365 20.5473 18.6139C20.559 18.5912 20.5699 18.5681 20.5802 18.5446C20.5904 18.5212 20.6001 18.4974 20.6089 18.4732C20.6177 18.4491 20.6259 18.4247 20.6331 18.4C20.6404 18.3754 20.647 18.3504 20.6528 18.3252C20.6586 18.3001 20.6637 18.2747 20.668 18.2492C20.6723 18.2237 20.6757 18.1982 20.6785 18.1723C20.6812 18.1467 20.6832 18.1208 20.6843 18.0948C20.6855 18.069 20.686 18.0431 20.6855 18.0171C20.6851 17.9913 20.6837 17.9655 20.6818 17.9396C20.6799 17.9138 20.677 17.8881 20.6735 17.8624C20.6701 17.8369 20.6657 17.8114 20.6605 17.7859C20.6555 17.7607 20.6497 17.7355 20.643 17.7106C20.6363 17.6857 20.629 17.6611 20.6208 17.6366C20.5121 17.3064 20.4318 16.9618 20.335 16.6253C20.0805 15.7337 19.7174 14.8819 19.6266 13.9296C19.6028 13.6728 19.5611 13.4192 19.5269 13.164C19.4391 12.5084 19.317 11.856 19.2694 11.1957C19.2099 10.3854 19.2128 9.57031 19.1905 8.75682C19.1905 8.68027 19.1905 8.59731 19.1905 8.52873C19.2828 8.98173 19.3259 9.4427 19.4331 9.87975C19.6309 10.7349 19.872 11.5758 20.1564 12.4024C20.4409 13.229 20.7668 14.0364 21.1343 14.8245C21.241 15.05 21.3633 15.2654 21.5013 15.4705C21.6393 15.6756 21.7914 15.8681 21.9573 16.0479C22.6077 16.7465 23.2507 17.4515 23.907 18.1406C24.0862 18.3344 24.2857 18.5003 24.5053 18.6383C25.0292 18.9573 25.5725 18.9174 26.1008 18.6478C26.7721 18.3065 27.2066 17.6908 27.4656 16.8741C27.3659 16.8422 27.284 16.8119 27.2007 16.7896C26.6865 16.654 26.1828 16.4832 25.6894 16.2768C25.1962 16.0704 24.7177 15.8303 24.2538 15.5566C22.3606 14.4225 20.9214 12.7764 20.0865 10.4524C19.9774 10.1499 19.8848 9.84165 19.8086 9.52772C19.7326 9.2137 19.6733 8.89613 19.6311 8.57498ZM18.9821 29.1067L18.9821 29.1402C19.829 29.1402 20.6759 29.1402 21.5227 29.1402C21.6165 29.1402 21.6715 29.1402 21.6715 28.9903C21.6954 27.6855 21.7445 26.3823 21.746 25.0792C21.746 24.0918 21.4676 23.248 20.7428 22.6387C19.9213 21.9512 19.0685 21.7455 18.1427 22.275C18.0592 22.325 17.9775 22.3779 17.8974 22.4337C17.8174 22.4899 17.7392 22.5487 17.663 22.6105C17.5867 22.6722 17.5126 22.7366 17.4405 22.804C17.3683 22.8713 17.2985 22.9411 17.2311 23.0135C17.1636 23.0861 17.0984 23.1611 17.0357 23.2383C16.973 23.3157 16.9129 23.3952 16.8553 23.4769C16.7977 23.5587 16.7428 23.6425 16.6907 23.7283C16.6385 23.8141 16.5892 23.9018 16.5428 23.9913C16.5154 24.0406 16.4911 24.0915 16.4701 24.1441C16.4492 24.1969 16.4316 24.2508 16.4175 24.306C16.4032 24.3614 16.3924 24.4174 16.3853 24.4742C16.3782 24.5309 16.3746 24.588 16.3746 24.6453C16.3567 26.0735 16.3344 27.5 16.3076 28.9249C16.3076 29.0764 16.3478 29.1083 16.4684 29.1083C17.3093 29.1051 18.1457 29.1067 18.9821 29.1067ZM5.76578 18.1007C5.76578 18.147 5.76578 18.1853 5.76578 18.2219C5.90231 19.5845 5.94796 20.9503 5.90271 22.3197C5.82651 24.2284 5.63898 26.1244 5.34012 28.0077C5.31482 28.1672 5.36096 28.2119 5.48151 28.231C5.79257 28.2805 6.10066 28.3475 6.41172 28.3905C6.9237 28.4655 7.43718 28.5245 7.95065 28.5979C8.09948 28.6186 8.15009 28.55 8.15604 28.3873C8.15604 28.2661 8.18283 28.1449 8.19325 28.0221C8.32869 26.4764 8.49091 24.9308 8.59063 23.382C8.64094 22.6023 8.65825 21.8219 8.64257 21.0406C8.6269 20.2593 8.57832 19.4803 8.49687 18.7037C8.48496 18.592 8.47752 18.5075 8.36143 18.4532C8.15772 18.3563 7.96623 18.2366 7.78693 18.0943C7.58303 17.9348 7.40146 17.7307 7.20649 17.5536C7.1276 17.4818 7.05765 17.4723 6.99217 17.5983C6.97569 17.6297 6.95759 17.66 6.93784 17.6892C6.918 17.7184 6.89672 17.7461 6.87399 17.7726C6.85118 17.7991 6.82701 17.8241 6.80151 17.8476C6.77602 17.8712 6.74932 17.8929 6.72144 17.913C6.69356 17.9331 6.66469 17.9514 6.63482 17.968C6.60495 17.9846 6.57429 17.9993 6.54284 18.0119C6.51139 18.0246 6.47933 18.0355 6.44669 18.0441C6.41406 18.0529 6.38106 18.0596 6.34772 18.064C6.15721 18.0927 5.97117 18.0896 5.76578 18.1007ZM33.0022 28.1784C32.5393 24.8 32.1092 21.436 32.6539 17.9699C32.1062 18.3607 31.6731 18.1422 31.2534 17.8104C31.1671 17.7402 31.0808 17.6701 30.993 17.6047C30.7593 17.434 30.7355 17.4451 30.539 17.6525C30.478 17.7179 30.4185 17.7849 30.3559 17.8471C30.3299 17.8723 30.3044 17.8983 30.2797 17.9251C30.255 17.9519 30.2311 17.9793 30.2079 18.0074C30.1845 18.0356 30.162 18.0645 30.1403 18.094C30.1186 18.1237 30.0976 18.1538 30.0775 18.1846C30.0572 18.2156 30.0379 18.247 30.0194 18.2789C30.0008 18.311 29.9833 18.3435 29.9664 18.3765C29.9496 18.4097 29.9337 18.4432 29.9187 18.4772C29.9036 18.5111 29.8895 18.5456 29.8763 18.5804C29.863 18.6153 29.8508 18.6505 29.8395 18.6861C29.828 18.7218 29.8176 18.7577 29.8081 18.7939C29.7987 18.8303 29.7902 18.8668 29.7826 18.9035C29.7751 18.9402 29.7685 18.9772 29.7628 19.0144C29.7572 19.0515 29.7526 19.0889 29.749 19.1262C29.7453 19.1637 29.7426 19.2012 29.741 19.2388C29.7393 19.2765 29.7386 19.3141 29.7389 19.3517C29.7392 19.3894 29.7405 19.427 29.7428 19.4645C29.7591 19.9287 29.7561 20.3944 29.7606 20.8602C29.7725 21.9767 29.7428 23.1077 29.8068 24.2274C29.8871 25.6231 30.0449 27.0124 30.1654 28.4065C30.1788 28.574 30.2413 28.6234 30.3798 28.6011C30.8843 28.5134 31.3918 28.4416 31.8979 28.3538L33.0022 28.1784ZM11.0657 18.911C11.0657 19.0801 11.0657 19.2141 11.0657 19.3481C11.0866 20.4455 11.1401 21.5429 11.1223 22.6387C11.0919 24.7201 10.957 26.7937 10.7175 28.8595C10.7041 28.9743 10.7175 29.0286 10.8261 29.0397C11.6417 29.1291 12.4558 29.2279 13.2714 29.3109C13.5929 29.3444 13.5974 29.3284 13.6108 28.9504C13.6762 27.1958 13.7596 25.4285 13.7968 23.6675C13.8236 22.1889 13.7849 20.7103 13.7745 19.2316C13.7706 19.1937 13.7632 19.1563 13.7522 19.12C12.8264 19.6176 11.9513 19.3656 11.0657 18.911ZM24.5634 19.2938L24.5634 19.5522C24.5723 21.4456 24.5559 23.3373 24.5961 25.2291C24.6229 26.5052 24.7256 27.7812 24.8 29.0573C24.8164 29.3348 24.8268 29.3348 25.0605 29.3077C25.8374 29.2184 26.6128 29.1259 27.3912 29.0413C27.5207 29.027 27.5519 28.9743 27.54 28.8212C27.3912 26.6407 27.2498 24.4587 27.2424 22.2686C27.2424 21.2877 27.2572 20.3051 27.2647 19.3241C27.2647 19.0626 27.2647 18.8026 27.2647 18.5713C26.8524 18.8073 26.4431 19.0817 26.0085 19.2795C25.9512 19.3039 25.8929 19.3254 25.8338 19.3439C25.7747 19.3626 25.7149 19.3782 25.6543 19.3908C25.5939 19.4036 25.533 19.4131 25.4717 19.4198C25.4104 19.4265 25.3489 19.4302 25.2871 19.4309C25.2255 19.4315 25.1641 19.4291 25.1026 19.4235C25.0411 19.4181 24.9801 19.4096 24.9194 19.3982C24.8587 19.3867 24.7985 19.3723 24.7391 19.3548C24.6798 19.3374 24.6211 19.3171 24.5634 19.2938ZM17.1024 19.2396C17.0618 19.2932 17.0174 19.3426 16.969 19.3883C16.9207 19.4339 16.869 19.4749 16.8144 19.5112C16.7598 19.5476 16.7026 19.5789 16.6429 19.605C16.5834 19.6312 16.5222 19.6519 16.4594 19.6671C16.3567 19.7006 16.3389 19.7676 16.3404 19.8792C16.3404 20.2477 16.3404 20.6162 16.3404 20.9846C16.3404 21.6099 16.3508 22.2352 16.3627 22.8604C16.3715 22.9914 16.3883 23.1211 16.4133 23.2496L16.4609 23.2608L16.5502 23.0742C17.0726 21.9576 17.8718 21.3196 18.9687 21.3595C20.3082 21.4185 21.2771 22.2144 21.8725 23.6276C21.8963 23.6835 21.9261 23.7345 21.9528 23.7872L21.996 23.7696C21.996 23.7154 22.0034 23.6611 22.0034 23.6101L22.0034 20.2349C22.0034 19.8585 22.0034 19.8585 21.7058 19.7133L21.6299 19.6751L20.8172 19.2492C20.7205 19.1981 20.6684 19.238 20.5955 19.3289C20.5242 19.4355 20.4452 19.5347 20.3582 19.6267C20.2712 19.7189 20.1777 19.8027 20.0775 19.8776C19.32 20.3354 18.5505 20.2285 17.8078 19.8154C17.5571 19.6454 17.3219 19.4535 17.1024 19.2396Z"
    fill="#ED1D25">
  </path>
  <path
    d="M50.1299 26.7557L50.541 26.2559C50.5537 26.2794 50.568 26.3019 50.5837 26.3233C50.5995 26.3449 50.6165 26.3653 50.6348 26.3846C50.6533 26.4038 50.6728 26.4217 50.6936 26.4383C50.7143 26.4548 50.736 26.47 50.7586 26.4838C50.7813 26.4974 50.8048 26.5095 50.829 26.5201C50.8533 26.5306 50.8782 26.5395 50.9036 26.5467C50.929 26.5538 50.9548 26.5593 50.9809 26.5629C51.007 26.5667 51.0332 26.5686 51.0597 26.5688C51.2091 26.5688 51.3467 26.5035 51.3467 26.3744C51.3467 26.2103 51.0836 26.0705 50.8324 25.9293C50.5096 25.7576 50.2345 25.4932 50.2345 25.0177C50.2342 25.0024 50.2343 24.9872 50.2348 24.972C50.2352 24.9567 50.236 24.9415 50.2372 24.9263C50.2384 24.9111 50.2399 24.8959 50.2418 24.8807C50.2438 24.8656 50.2462 24.8506 50.2489 24.8356C50.2516 24.8205 50.2546 24.8055 50.258 24.7907C50.2614 24.7759 50.2651 24.7611 50.2692 24.7464C50.2734 24.7317 50.2779 24.7172 50.2826 24.7028C50.2875 24.6883 50.2927 24.674 50.2982 24.6598C50.3038 24.6456 50.3097 24.6316 50.3158 24.6177C50.3221 24.6038 50.3287 24.5901 50.3356 24.5765C50.3424 24.563 50.3497 24.5496 50.3572 24.5364C50.3648 24.5233 50.3727 24.5103 50.3809 24.4975C50.389 24.4847 50.3976 24.4721 50.4064 24.4597C50.4152 24.4474 50.4243 24.4353 50.4336 24.4234C50.443 24.4114 50.4527 24.3997 50.4626 24.3883C50.4726 24.377 50.4829 24.3658 50.4934 24.3549C50.5039 24.344 50.5146 24.3334 50.5257 24.323C50.5368 24.3127 50.548 24.3026 50.5595 24.2929C50.571 24.2831 50.5828 24.2736 50.5948 24.2643C50.6068 24.2552 50.619 24.2464 50.6314 24.2378C50.6438 24.2291 50.6565 24.2209 50.6694 24.213C50.6821 24.2051 50.6951 24.1975 50.7084 24.1902C50.7215 24.1829 50.7349 24.176 50.7484 24.1694C50.762 24.1628 50.7757 24.1565 50.7895 24.1505C50.8034 24.1447 50.8173 24.1392 50.8314 24.134C50.8455 24.1287 50.8598 24.1239 50.8741 24.1194C50.8885 24.115 50.9029 24.1108 50.9175 24.1071C50.932 24.1034 50.9467 24.1 50.9614 24.0969C50.9762 24.0939 50.991 24.0912 51.0058 24.089C51.0207 24.0868 51.0355 24.0849 51.0504 24.0834C51.0653 24.0819 51.0803 24.0807 51.0954 24.0799C51.1103 24.0792 51.1253 24.0788 51.1404 24.0788C51.1617 24.0778 51.183 24.0777 51.2043 24.0784C51.2257 24.0792 51.247 24.0808 51.2682 24.0832C51.2894 24.0857 51.3105 24.0889 51.3316 24.093C51.3525 24.0971 51.3732 24.1021 51.3937 24.108C51.4144 24.1138 51.4347 24.1204 51.4547 24.1278C51.4748 24.1353 51.4945 24.1435 51.5139 24.1525C51.5334 24.1615 51.5524 24.1714 51.571 24.182C51.5897 24.1925 51.6079 24.2038 51.6257 24.2159C51.6435 24.2278 51.6607 24.2405 51.6775 24.254C51.6943 24.2674 51.7105 24.2815 51.7262 24.2962C51.7419 24.3109 51.757 24.3263 51.7715 24.3423C51.7859 24.3582 51.7998 24.3746 51.813 24.3916C51.8262 24.4088 51.8387 24.4263 51.8506 24.4444C51.8624 24.4625 51.8735 24.481 51.8839 24.5C51.8942 24.5189 51.9039 24.5383 51.9127 24.558C51.9217 24.5778 51.9298 24.5978 51.9371 24.6182L51.544 25.0861C51.5344 25.0681 51.5237 25.0509 51.5118 25.0344C51.5 25.0179 51.4871 25.0023 51.4731 24.9876C51.4593 24.9728 51.4445 24.9591 51.4289 24.9463C51.4131 24.9336 51.3967 24.9219 51.3795 24.9114C51.3623 24.9007 51.3445 24.8913 51.3262 24.8831C51.3077 24.875 51.2889 24.8681 51.2695 24.8625C51.2502 24.8568 51.2306 24.8525 51.2108 24.8495C51.1909 24.8465 51.171 24.8448 51.1508 24.8445C51.1437 24.8437 51.1365 24.8433 51.1293 24.8432C51.1221 24.843 51.115 24.8432 51.1078 24.8438C51.1007 24.8445 51.0936 24.8455 51.0866 24.8468C51.0795 24.8481 51.0725 24.8498 51.0656 24.8518C51.0588 24.8538 51.052 24.8562 51.0453 24.859C51.0386 24.8617 51.0321 24.8647 51.0257 24.8681C51.0193 24.8714 51.0132 24.8751 51.0072 24.8792C51.0011 24.8831 50.9953 24.8874 50.9897 24.8919C50.9841 24.8966 50.9788 24.9014 50.9737 24.9065C50.9686 24.9117 50.9638 24.917 50.9592 24.9226C50.9546 24.9283 50.9503 24.9341 50.9462 24.9401C50.9422 24.9462 50.9385 24.9524 50.9351 24.9589C50.9317 24.9653 50.9287 24.9719 50.9259 24.9787C50.9231 24.9854 50.9206 24.9922 50.9185 24.9992C50.9165 25.0062 50.9147 25.0133 50.9133 25.0205C50.9119 25.0275 50.9109 25.0347 50.9102 25.042C50.9102 25.1939 51.091 25.235 51.3676 25.3778C51.7682 25.5859 52.0328 25.8882 52.0328 26.3561C52.0332 26.3723 52.0332 26.3885 52.0328 26.4046C52.0324 26.4208 52.0316 26.437 52.0304 26.4531C52.0292 26.4693 52.0276 26.4854 52.0256 26.5014C52.0236 26.5174 52.0212 26.5334 52.0184 26.5494C52.0155 26.5653 52.0123 26.5811 52.0087 26.5968C52.0051 26.6126 52.0011 26.6282 51.9967 26.6437C51.9924 26.6593 51.9876 26.6748 51.9824 26.6901C51.9773 26.7054 51.9718 26.7206 51.9658 26.7356C51.9599 26.7506 51.9537 26.7655 51.947 26.7802C51.9403 26.7948 51.9333 26.8093 51.9259 26.8236C51.9185 26.838 51.9108 26.8521 51.9027 26.866C51.8946 26.88 51.8861 26.8937 51.8773 26.9072C51.8685 26.9206 51.8594 26.9339 51.85 26.947C51.8406 26.9599 51.8309 26.9727 51.8208 26.9852C51.8106 26.9978 51.8002 27.0101 51.7896 27.022C51.7789 27.034 51.7679 27.0457 51.7565 27.0571C51.7453 27.0686 51.7337 27.0796 51.7219 27.0904C51.7101 27.1012 51.698 27.1117 51.6857 27.122C51.6733 27.1321 51.6607 27.142 51.6479 27.1516C51.635 27.1611 51.6219 27.1703 51.6085 27.1791C51.5952 27.188 51.5816 27.1965 51.5679 27.2046C51.5542 27.2128 51.5403 27.2206 51.5262 27.228C51.512 27.2355 51.4977 27.2426 51.4833 27.2493C51.4687 27.256 51.4541 27.2623 51.4393 27.2683C51.4245 27.2742 51.4095 27.2797 51.3945 27.285C51.3793 27.2902 51.3641 27.2949 51.3489 27.2993C51.3335 27.3036 51.3181 27.3076 51.3026 27.3111C51.287 27.3148 51.2714 27.318 51.2558 27.3207C51.2401 27.3235 51.2244 27.3259 51.2085 27.3278C51.1928 27.3299 51.1769 27.3314 51.161 27.3326C51.1452 27.3337 51.1293 27.3344 51.1133 27.3348C51.0975 27.3351 51.0816 27.335 51.0656 27.3345C51.0414 27.3357 51.0172 27.3361 50.993 27.3356C50.9687 27.335 50.9445 27.3334 50.9203 27.331C50.8962 27.3286 50.8722 27.3253 50.8483 27.321C50.8245 27.3167 50.8008 27.3116 50.7773 27.3056C50.7538 27.2996 50.7305 27.2926 50.7075 27.2848C50.6845 27.277 50.6618 27.2683 50.6395 27.2587C50.617 27.2492 50.5951 27.2389 50.5735 27.2277C50.5519 27.2165 50.5307 27.2045 50.51 27.1917C50.4893 27.1789 50.4691 27.1652 50.4493 27.1509C50.4296 27.1366 50.4105 27.1215 50.3919 27.1057C50.3733 27.0898 50.3552 27.0733 50.3378 27.0562C50.3205 27.039 50.3037 27.0212 50.2876 27.0027C50.2715 26.9843 50.2562 26.9653 50.2415 26.9456C50.2268 26.9261 50.2128 26.906 50.1997 26.8853C50.1864 26.8646 50.174 26.8435 50.1623 26.8218C50.1508 26.8002 50.1399 26.7782 50.1299 26.7557Z"
    fill="#FFFFFF">
  </path>
  <path
    d="M56.0583 24.9098L55.4454 24.9098L55.4454 27.2919L54.7638 27.2919L54.7638 24.9098L54.1494 24.9098L54.1494 24.1243L56.0583 24.1243L56.0583 24.9098Z"
    fill="#FFFFFF">
  </path>
  <path
    d="M59.6802 27.2919L58.9956 25.9155L58.9956 27.2919L58.3154 27.2919L58.3154 24.1243L59.2871 24.1243C59.8401 24.1243 60.2363 24.5801 60.2363 25.1544C60.237 25.1757 60.237 25.1971 60.2364 25.2183C60.2358 25.2397 60.2345 25.261 60.2325 25.2823C60.2305 25.3035 60.2279 25.3246 60.2246 25.3456C60.2212 25.3668 60.2172 25.3878 60.2126 25.4085C60.2079 25.4294 60.2026 25.45 60.1966 25.4704C60.1906 25.4908 60.1839 25.5111 60.1766 25.5311C60.1693 25.5512 60.1614 25.5709 60.1528 25.5904C60.1444 25.6099 60.1352 25.6291 60.1253 25.648C60.1156 25.6669 60.1052 25.6854 60.0943 25.7036C60.0833 25.7218 60.0718 25.7396 60.0597 25.757C60.0476 25.7745 60.0349 25.7915 60.0218 25.8081C60.0085 25.8247 59.9947 25.8408 59.9805 25.8565C59.9663 25.8722 59.9516 25.8875 59.9364 25.9023C59.9212 25.917 59.9055 25.9311 59.8895 25.9448C59.8733 25.9585 59.8568 25.9717 59.8398 25.9843C59.8229 25.9969 59.8056 26.0089 59.7878 26.0203L60.4739 27.2919L59.6802 27.2919ZM58.9926 25.5144L59.2706 25.5144C59.2801 25.5133 59.2895 25.5117 59.2989 25.5097C59.3082 25.5077 59.3175 25.5052 59.3265 25.5023C59.3356 25.4994 59.3446 25.4961 59.3534 25.4924C59.3622 25.4888 59.3708 25.4846 59.3793 25.4801C59.3878 25.4756 59.396 25.4708 59.4041 25.4655C59.4121 25.4602 59.4198 25.4546 59.4274 25.4486C59.4349 25.4427 59.4421 25.4364 59.4491 25.4298C59.4561 25.4231 59.4627 25.4161 59.469 25.4088C59.4753 25.4016 59.4814 25.3942 59.4871 25.3864C59.4926 25.3785 59.4979 25.3704 59.5029 25.3622C59.5079 25.3539 59.5125 25.3454 59.5167 25.3367C59.5208 25.3279 59.5246 25.319 59.528 25.3099C59.5314 25.3008 59.5344 25.2916 59.5368 25.2823C59.5394 25.273 59.5416 25.2635 59.5433 25.254C59.545 25.2444 59.5463 25.2348 59.5471 25.2252C59.5481 25.2155 59.5485 25.2059 59.5485 25.1961C59.5485 25.1864 59.5481 25.1767 59.5471 25.1671C59.5463 25.1574 59.545 25.1478 59.5433 25.1383C59.5416 25.1287 59.5394 25.1193 59.5368 25.11C59.5344 25.1007 59.5314 25.0915 59.5279 25.0824C59.5245 25.0732 59.5207 25.0643 59.5165 25.0556C59.5124 25.0469 59.5079 25.0384 59.5029 25.0301C59.4979 25.0218 59.4926 25.0137 59.4871 25.0059C59.4814 24.9981 59.4753 24.9906 59.469 24.9835C59.4627 24.9762 59.4561 24.9692 59.4491 24.9625C59.4421 24.9559 59.4349 24.9496 59.4274 24.9437C59.4198 24.9377 59.4121 24.9321 59.4041 24.9268C59.396 24.9215 59.3878 24.9167 59.3793 24.9122C59.3708 24.9076 59.3622 24.9035 59.3534 24.8999C59.3446 24.8962 59.3356 24.8929 59.3265 24.89C59.3175 24.8871 59.3082 24.8846 59.2989 24.8826C59.2895 24.8806 59.2801 24.879 59.2706 24.8779L58.9926 24.8779L58.9926 25.5144Z"
    fill="#FFFFFF">
  </path>
  <path
    d="M63.3572 24.9067L63.3572 25.3488L64.1704 25.3488L64.1704 26.0492L63.3572 26.0492L63.3572 26.5049L64.3453 26.5049L64.3453 27.2934L62.6846 27.2934L62.6846 24.1243L64.3453 24.1243L64.3453 24.9067L63.3572 24.9067Z"
    fill="#FFFFFF">
  </path>
  <path
    d="M68.3292 26.9213L67.3726 26.9213L67.2425 27.292L66.4951 27.292L67.691 24.0849L68.0138 24.0849L69.2097 27.292L68.4623 27.292L68.3292 26.9213ZM68.1125 26.3136L67.8509 25.5631L67.5938 26.3075L68.1125 26.3136Z"
    fill="#FFFFFF">
  </path>
  <path
    d="M74.1706 24.0941L74.1706 27.2844L73.492 27.2844L73.492 26.028L72.8014 27.2312L72.1108 26.028L72.1108 27.2844L71.4307 27.2844L71.4307 24.0941L71.7042 24.0941L72.8029 25.9566L73.9031 24.0941L74.1706 24.0941Z"
    fill="#FFFFFF">
  </path>
  <path
    d="M78.2354 26.5019L78.2354 27.2919L76.5762 27.2919L76.5762 24.1243L77.2563 24.1243L77.2563 26.5019L78.2354 26.5019Z"
    fill="#FFFFFF">
  </path>
  <path d="M80.4893 24.1243L81.1694 24.1243L81.1694 27.2919L80.4893 27.2919L80.4893 24.1243Z" fill="#FFFFFF">
  </path>
  <path
    d="M85.7914 24.1153L85.7914 27.3178L85.5762 27.3178L84.2592 25.7408L84.2592 27.2889L83.5791 27.2889L83.5791 24.0925L83.7988 24.0925L85.1098 25.6649L85.1098 24.1153L85.7914 24.1153Z"
    fill="#FFFFFF">
  </path>
  <path
    d="M88.8737 24.9067L88.8737 25.3488L89.6869 25.3488L89.6869 26.0492L88.8737 26.0492L88.8737 26.5049L89.8663 26.5049L89.8663 27.2934L88.207 27.2934L88.207 24.1243L89.8663 24.1243L89.8663 24.9067L88.8737 24.9067Z"
    fill="#FFFFFF">
  </path>
  <path
    d="M97.3837 25.712C97.3837 26.6949 96.8516 27.292 95.9816 27.292L95.146 27.292L95.146 24.1259L95.9816 24.1259C96.8516 24.1153 97.3837 24.723 97.3837 25.712ZM96.7021 25.712C96.7021 25.2137 96.4226 24.9114 95.9637 24.9114L95.8142 24.9114L95.8142 26.5005L95.9771 26.5005C96.4256 26.499 96.7021 26.2012 96.7021 25.7105L96.7021 25.712Z"
    fill="#FFFFFF">
  </path>
  <path
    d="M101.323 26.9213L100.368 26.9213L100.238 27.292L99.4902 27.292L100.686 24.0849L101.009 24.0849L102.205 27.292L101.457 27.292L101.323 26.9213ZM101.108 26.3136L100.846 25.5631L100.581 26.3136L101.108 26.3136Z"
    fill="#FFFFFF">
  </path>
  <path
    d="M106.171 24.9098L105.562 24.9098L105.562 27.2919L104.881 27.2919L104.881 24.9098L104.262 24.9098L104.262 24.1243L106.171 24.1243L106.171 24.9098Z"
    fill="#FFFFFF">
  </path>
  <path
    d="M110.064 26.9213L109.109 26.9213L108.979 27.292L108.231 27.292L109.427 24.0849L109.747 24.0849L110.943 27.292L110.196 27.292L110.064 26.9213ZM109.849 26.3136L109.587 25.5631L109.323 26.3136L109.849 26.3136Z"
    fill="#FFFFFF">
  </path>
  <path d="M116.102 24.1243L116.78 24.1243L116.78 27.2919L116.102 27.2919L116.102 24.1243Z" fill="#FFFFFF">
  </path>
  <path
    d="M121.407 24.1153L121.407 27.3178L121.19 27.3178L119.873 25.7408L119.873 27.2889L119.194 27.2889L119.194 24.0925L119.413 24.0925L120.725 25.6649L120.725 24.1153L121.407 24.1153Z"
    fill="#FFFFFF">
  </path>
  <path
    d="M124.485 24.9068L124.485 25.4188L125.293 25.4188L125.293 26.1222L124.48 26.1222L124.48 27.295L123.813 27.295L123.813 24.1153L125.473 24.1153L125.473 24.9053L124.485 24.9068Z"
    fill="#FFFFFF">
  </path>
  <path
    d="M129.095 27.2919L128.41 25.9155L128.41 27.2919L127.73 27.2919L127.73 24.1243L128.702 24.1243C129.255 24.1243 129.649 24.5801 129.649 25.1544C129.65 25.1757 129.65 25.1971 129.649 25.2183C129.649 25.2397 129.648 25.261 129.646 25.2823C129.644 25.3036 129.641 25.3247 129.637 25.3458C129.634 25.3669 129.63 25.3878 129.625 25.4085C129.621 25.4294 129.616 25.4501 129.61 25.4705C129.604 25.491 129.597 25.5112 129.59 25.5313C129.583 25.5512 129.575 25.571 129.566 25.5905C129.558 25.61 129.549 25.6292 129.539 25.6481C129.529 25.667 129.518 25.6855 129.507 25.7037C129.496 25.7219 129.485 25.7398 129.473 25.7572C129.461 25.7746 129.449 25.7916 129.436 25.8082C129.422 25.8249 129.408 25.841 129.394 25.8567C129.38 25.8724 129.365 25.8876 129.349 25.9023C129.334 25.917 129.318 25.9312 129.303 25.945C129.287 25.9586 129.27 25.9718 129.253 25.9843C129.236 25.9969 129.219 26.0089 129.201 26.0203L129.887 27.2919L129.095 27.2919ZM128.407 25.5144L128.684 25.5144C128.694 25.5133 128.703 25.5117 128.712 25.5097C128.721 25.5077 128.73 25.5052 128.739 25.5023C128.749 25.4994 128.758 25.4961 128.766 25.4924C128.775 25.4888 128.784 25.4846 128.793 25.4801C128.801 25.4756 128.809 25.4708 128.817 25.4655C128.825 25.4602 128.833 25.4546 128.841 25.4486C128.848 25.4427 128.855 25.4364 128.862 25.4298C128.869 25.4231 128.876 25.4161 128.882 25.4088C128.888 25.4016 128.894 25.3942 128.9 25.3864C128.905 25.3786 128.91 25.3705 128.915 25.3622C128.92 25.3539 128.925 25.3454 128.93 25.3367C128.934 25.3279 128.938 25.319 128.941 25.3099C128.945 25.3008 128.948 25.2916 128.95 25.2823C128.953 25.273 128.955 25.2635 128.956 25.254C128.958 25.2445 128.959 25.2349 128.96 25.2252C128.961 25.2155 128.962 25.2059 128.962 25.1961C128.962 25.1864 128.961 25.1767 128.96 25.1671C128.959 25.1574 128.958 25.1478 128.956 25.1383C128.955 25.1287 128.953 25.1193 128.95 25.11C128.948 25.1007 128.945 25.0915 128.941 25.0824C128.938 25.0733 128.934 25.0644 128.93 25.0556C128.925 25.0469 128.92 25.0384 128.915 25.0301C128.91 25.0219 128.905 25.0138 128.9 25.0059C128.894 24.9981 128.888 24.9906 128.882 24.9835C128.876 24.9762 128.869 24.9692 128.862 24.9626C128.855 24.956 128.848 24.9496 128.841 24.9437C128.833 24.9377 128.825 24.9321 128.817 24.9268C128.809 24.9215 128.801 24.9166 128.793 24.9121C128.784 24.9076 128.775 24.9035 128.766 24.8999C128.758 24.8962 128.749 24.8929 128.739 24.89C128.73 24.8871 128.721 24.8846 128.712 24.8826C128.703 24.8806 128.694 24.879 128.684 24.8779L128.407 24.8779L128.407 25.5144Z"
    fill="#FFFFFF">
  </path>
  <path
    d="M133.739 26.9213L132.784 26.9213L132.654 27.292L131.906 27.292L133.102 24.0849L133.425 24.0849L134.621 27.292L133.873 27.292L133.739 26.9213ZM133.524 26.3136L133.262 25.5631L132.997 26.3136L133.524 26.3136Z"
    fill="#FFFFFF">
  </path>
  <path
    d="M136.7 26.7557L137.111 26.2559C137.124 26.2794 137.139 26.3019 137.155 26.3235C137.171 26.3451 137.187 26.3655 137.205 26.3847C137.224 26.4041 137.244 26.422 137.264 26.4386C137.285 26.4552 137.307 26.4704 137.329 26.4841C137.352 26.4977 137.376 26.5098 137.4 26.5204C137.425 26.5309 137.45 26.5398 137.475 26.5469C137.5 26.554 137.526 26.5595 137.552 26.5632C137.578 26.5669 137.605 26.5687 137.631 26.5688C137.781 26.5688 137.917 26.5035 137.917 26.3744C137.917 26.2103 137.654 26.0705 137.404 25.9293C137.08 25.7576 136.806 25.4932 136.806 25.0177C136.806 25.0024 136.806 24.9872 136.806 24.972C136.807 24.9567 136.808 24.9414 136.809 24.9261C136.81 24.9109 136.812 24.8958 136.814 24.8807C136.816 24.8655 136.818 24.8504 136.821 24.8354C136.823 24.8203 136.826 24.8053 136.83 24.7904C136.833 24.7756 136.837 24.7608 136.841 24.7461C136.845 24.7314 136.849 24.7169 136.854 24.7025C136.859 24.688 136.865 24.6737 136.871 24.6595C136.876 24.6453 136.882 24.6312 136.889 24.6173C136.895 24.6034 136.901 24.5896 136.908 24.5761C136.915 24.5625 136.922 24.5491 136.929 24.536C136.937 24.5228 136.945 24.5098 136.953 24.4969C136.961 24.4842 136.969 24.4716 136.978 24.4592C136.987 24.4469 136.996 24.4347 137.005 24.4228C137.015 24.4109 137.025 24.3993 137.035 24.3878C137.045 24.3764 137.055 24.3653 137.066 24.3544C137.076 24.3435 137.087 24.3329 137.098 24.3225C137.109 24.3122 137.12 24.3021 137.132 24.2923C137.143 24.2825 137.155 24.273 137.167 24.2639C137.18 24.2547 137.192 24.2458 137.204 24.2373C137.217 24.2287 137.229 24.2204 137.241 24.2125C137.254 24.2045 137.268 24.1969 137.282 24.1897C137.295 24.1825 137.308 24.1755 137.321 24.1689C137.334 24.1623 137.348 24.1561 137.362 24.1502C137.376 24.1443 137.39 24.1387 137.404 24.1335C137.418 24.1284 137.433 24.1236 137.448 24.1191C137.462 24.1146 137.476 24.1105 137.491 24.1068C137.505 24.103 137.519 24.0997 137.534 24.0968C137.549 24.0937 137.564 24.0911 137.579 24.0889C137.594 24.0866 137.609 24.0848 137.624 24.0832C137.639 24.0817 137.654 24.0806 137.669 24.0799C137.684 24.0792 137.699 24.0788 137.714 24.0788C137.735 24.0779 137.756 24.0778 137.778 24.0785C137.799 24.0793 137.82 24.081 137.841 24.0834C137.863 24.0858 137.884 24.0891 137.905 24.0933C137.926 24.0974 137.946 24.1024 137.966 24.1083C137.987 24.1141 138.008 24.1207 138.028 24.1282C138.048 24.1357 138.067 24.144 138.086 24.153C138.106 24.162 138.125 24.1718 138.144 24.1825C138.162 24.193 138.18 24.2043 138.198 24.2163C138.216 24.2283 138.233 24.241 138.25 24.2545C138.266 24.2678 138.282 24.2819 138.298 24.2967C138.314 24.3114 138.329 24.3267 138.343 24.3426C138.358 24.3585 138.372 24.375 138.385 24.3921C138.398 24.4091 138.41 24.4266 138.422 24.4447C138.434 24.4627 138.445 24.4812 138.455 24.5001C138.466 24.5191 138.476 24.5384 138.485 24.558C138.494 24.5778 138.502 24.5978 138.509 24.6182L138.117 25.0861C138.107 25.0681 138.096 25.051 138.084 25.0346C138.072 25.0182 138.059 25.0026 138.046 24.9879C138.032 24.9733 138.017 24.9595 138.001 24.9468C137.985 24.9341 137.968 24.9225 137.951 24.912C137.933 24.9015 137.915 24.8923 137.898 24.8842C137.879 24.8761 137.86 24.8692 137.841 24.8637C137.821 24.8581 137.801 24.8538 137.781 24.8509C137.761 24.848 137.741 24.8463 137.721 24.846C137.714 24.8452 137.707 24.8448 137.7 24.8447C137.692 24.8445 137.685 24.8447 137.678 24.8453C137.671 24.8459 137.664 24.8468 137.657 24.8482C137.65 24.8496 137.643 24.8513 137.636 24.8533C137.629 24.8554 137.622 24.8577 137.615 24.8603C137.609 24.8631 137.603 24.8661 137.596 24.8696C137.59 24.8729 137.584 24.8766 137.578 24.8805C137.572 24.8846 137.566 24.8889 137.56 24.8934C137.555 24.898 137.549 24.9029 137.543 24.908C137.538 24.9132 137.534 24.9186 137.53 24.9241C137.525 24.9298 137.52 24.9356 137.516 24.9416C137.512 24.9477 137.509 24.9539 137.506 24.9603C137.502 24.9668 137.498 24.9734 137.495 24.9802C137.493 24.9869 137.491 24.9937 137.489 25.0007C137.486 25.0077 137.484 25.0148 137.483 25.022C137.482 25.0291 137.481 25.0363 137.48 25.0435C137.48 25.1955 137.663 25.2365 137.938 25.3793C138.339 25.5874 138.605 25.8897 138.605 26.3577C138.605 26.3739 138.605 26.39 138.605 26.4061C138.605 26.4223 138.604 26.4385 138.602 26.4546C138.601 26.4707 138.599 26.4867 138.597 26.5028C138.595 26.5188 138.593 26.5349 138.59 26.5508C138.587 26.5667 138.584 26.5825 138.581 26.5982C138.577 26.614 138.573 26.6296 138.569 26.6451C138.564 26.6607 138.559 26.6761 138.554 26.6914C138.549 26.7067 138.543 26.7219 138.537 26.7369C138.531 26.7518 138.525 26.7667 138.518 26.7814C138.512 26.7961 138.505 26.8105 138.497 26.8248C138.49 26.8391 138.482 26.8532 138.475 26.8672C138.466 26.8811 138.457 26.8948 138.449 26.9082C138.44 26.9218 138.431 26.9351 138.421 26.948C138.412 26.9611 138.402 26.9738 138.392 26.9863C138.382 26.9989 138.372 27.0111 138.361 27.0231C138.35 27.035 138.339 27.0467 138.328 27.0582C138.317 27.0695 138.306 27.0806 138.294 27.0914C138.282 27.1023 138.269 27.1128 138.256 27.1229C138.244 27.1331 138.232 27.143 138.219 27.1525C138.206 27.162 138.193 27.1713 138.18 27.1802C138.167 27.189 138.154 27.1975 138.14 27.2057C138.126 27.2138 138.112 27.2216 138.098 27.2291C138.084 27.2365 138.069 27.2436 138.054 27.2503C138.041 27.257 138.026 27.2634 138.011 27.2693C137.996 27.2752 137.981 27.2808 137.966 27.286C137.951 27.2912 137.936 27.296 137.92 27.3003C137.905 27.3048 137.89 27.3088 137.874 27.3123C137.859 27.316 137.843 27.3192 137.827 27.3221C137.811 27.3248 137.796 27.3272 137.781 27.3292C137.765 27.3311 137.749 27.3327 137.733 27.3339C137.717 27.3351 137.701 27.3359 137.685 27.3362C137.669 27.3366 137.653 27.3365 137.637 27.336C137.614 27.3373 137.589 27.3376 137.564 27.3369C137.54 27.3364 137.516 27.335 137.492 27.3326C137.468 27.3301 137.443 27.3268 137.419 27.3225C137.395 27.3182 137.372 27.313 137.349 27.307C137.325 27.3009 137.302 27.2939 137.279 27.286C137.256 27.2783 137.233 27.2696 137.21 27.2601C137.188 27.2505 137.166 27.24 137.144 27.2288C137.122 27.2175 137.101 27.2055 137.081 27.1926C137.06 27.1799 137.04 27.1662 137.02 27.1518C137 27.1374 136.981 27.1223 136.962 27.1065C136.944 27.0906 136.926 27.074 136.908 27.0568C136.891 27.0396 136.875 27.0218 136.859 27.0033C136.842 26.9848 136.826 26.9657 136.812 26.9461C136.797 26.9264 136.783 26.9062 136.77 26.8854C136.756 26.8648 136.744 26.8436 136.733 26.8219C136.721 26.8003 136.71 26.7782 136.7 26.7557Z"
    fill="#FFFFFF">
  </path>
  <path
    d="M142.633 24.9098L142.021 24.9098L142.021 27.2919L141.339 27.2919L141.339 24.9098L140.725 24.9098L140.725 24.1243L142.633 24.1243L142.633 24.9098Z"
    fill="#FFFFFF">
  </path>
  <path
    d="M146.251 27.2919L145.566 25.9155L145.566 27.2919L144.886 27.2919L144.886 24.1243L145.859 24.1243C146.41 24.1243 146.807 24.5801 146.807 25.1544C146.808 25.1757 146.808 25.1971 146.807 25.2183C146.807 25.2397 146.806 25.261 146.804 25.2823C146.802 25.3035 146.799 25.3246 146.795 25.3456C146.792 25.3668 146.788 25.3878 146.783 25.4085C146.778 25.4294 146.772 25.4501 146.766 25.4705C146.76 25.4909 146.754 25.5111 146.747 25.5311C146.74 25.5512 146.732 25.5709 146.723 25.5904C146.715 25.6099 146.706 25.6291 146.696 25.648C146.686 25.6669 146.676 25.6854 146.665 25.7036C146.654 25.7218 146.642 25.7396 146.63 25.757C146.618 25.7745 146.605 25.7915 146.591 25.8081C146.578 25.8247 146.565 25.8408 146.551 25.8565C146.537 25.8722 146.522 25.8874 146.506 25.9021C146.491 25.9169 146.476 25.9311 146.46 25.9448C146.444 25.9585 146.427 25.9717 146.41 25.9843C146.394 25.9969 146.376 26.0089 146.358 26.0203L147.046 27.2919L146.251 27.2919ZM145.563 25.5144L145.841 25.5144C145.851 25.5133 145.86 25.5117 145.869 25.5097C145.878 25.5077 145.887 25.5052 145.896 25.5023C145.906 25.4994 145.915 25.4961 145.923 25.4924C145.932 25.4888 145.941 25.4846 145.95 25.4801C145.958 25.4756 145.966 25.4708 145.974 25.4655C145.982 25.4602 145.99 25.4546 145.998 25.4486C146.005 25.4427 146.012 25.4364 146.019 25.4298C146.026 25.4231 146.033 25.4161 146.04 25.4088C146.046 25.4016 146.052 25.3942 146.058 25.3864C146.063 25.3786 146.068 25.3705 146.073 25.3622C146.078 25.3539 146.083 25.3454 146.088 25.3367C146.092 25.3279 146.095 25.319 146.098 25.3099C146.102 25.3008 146.105 25.2916 146.107 25.2823C146.11 25.273 146.112 25.2635 146.113 25.254C146.115 25.2445 146.116 25.2349 146.117 25.2252C146.118 25.2155 146.119 25.2059 146.119 25.1961C146.119 25.1864 146.118 25.1767 146.117 25.1671C146.116 25.1574 146.115 25.1478 146.113 25.1383C146.112 25.1287 146.11 25.1193 146.107 25.11C146.105 25.1007 146.102 25.0915 146.098 25.0824C146.095 25.0732 146.092 25.0643 146.088 25.0556C146.083 25.0469 146.078 25.0384 146.073 25.0301C146.068 25.0218 146.063 25.0137 146.058 25.0059C146.052 24.9981 146.046 24.9906 146.04 24.9835C146.033 24.9762 146.026 24.9692 146.019 24.9625C146.012 24.9559 146.005 24.9496 145.998 24.9437C145.99 24.9377 145.982 24.9321 145.974 24.9268C145.966 24.9215 145.958 24.9167 145.95 24.9122C145.941 24.9076 145.932 24.9035 145.923 24.8999C145.915 24.8962 145.906 24.8929 145.896 24.89C145.887 24.8871 145.878 24.8846 145.869 24.8826C145.86 24.8806 145.851 24.879 145.841 24.8779L145.563 24.8779L145.563 25.5144Z"
    fill="#FFFFFF">
  </path>
  <path
    d="M149.234 26.1403L149.234 24.1243L149.917 24.1243L149.917 26.1373C149.917 26.1508 149.916 26.1642 149.916 26.1777C149.917 26.1913 149.918 26.2048 149.919 26.2181C149.921 26.2315 149.923 26.2448 149.926 26.2579C149.929 26.2711 149.933 26.2841 149.937 26.297C149.941 26.3097 149.946 26.3223 149.952 26.3346C149.957 26.347 149.963 26.359 149.97 26.3707C149.977 26.3824 149.984 26.3938 149.991 26.4048C149.999 26.4159 150.007 26.4265 150.016 26.4366C150.025 26.4467 150.034 26.4564 150.043 26.4658C150.053 26.475 150.063 26.4837 150.074 26.492C150.084 26.5002 150.095 26.5079 150.106 26.5151C150.118 26.5222 150.13 26.5288 150.142 26.5347C150.154 26.5407 150.166 26.5461 150.178 26.5508C150.191 26.5556 150.204 26.5597 150.216 26.5633C150.228 26.5667 150.241 26.5696 150.255 26.5718C150.268 26.5739 150.281 26.5754 150.294 26.5764C150.307 26.5754 150.32 26.5739 150.333 26.5716C150.347 26.5694 150.36 26.5665 150.373 26.563C150.385 26.5594 150.398 26.5553 150.411 26.5505C150.423 26.5458 150.435 26.5404 150.447 26.5344C150.459 26.5284 150.471 26.5219 150.483 26.5147C150.493 26.5076 150.504 26.4999 150.515 26.4916C150.525 26.4834 150.535 26.4747 150.545 26.4655C150.555 26.4562 150.565 26.4466 150.574 26.4364C150.582 26.4262 150.59 26.4156 150.598 26.4047C150.606 26.3936 150.613 26.3823 150.62 26.3707C150.626 26.3589 150.632 26.3469 150.638 26.3346C150.643 26.3223 150.648 26.3097 150.653 26.297C150.657 26.2842 150.66 26.2712 150.663 26.2581C150.666 26.2449 150.669 26.2316 150.671 26.2181C150.673 26.2048 150.674 26.1913 150.674 26.1779C150.675 26.1643 150.675 26.1508 150.674 26.1373L150.674 24.1243L151.358 24.1243L151.358 26.1403C151.358 26.8665 150.883 27.38 150.296 27.38C149.708 27.38 149.234 26.8665 149.234 26.1403Z"
    fill="#FFFFFF">
  </path>
  <path
    d="M153.635 25.7075C153.635 24.7701 154.248 24.05 155.044 24.05C155.089 24.0528 155.134 24.058 155.179 24.0655C155.224 24.0729 155.268 24.0826 155.312 24.0945C155.356 24.1065 155.399 24.1205 155.442 24.1367C155.484 24.1531 155.525 24.1715 155.566 24.192C155.607 24.2125 155.646 24.235 155.684 24.2595C155.723 24.284 155.76 24.3104 155.795 24.3386C155.831 24.3669 155.865 24.3969 155.898 24.4286C155.931 24.4603 155.962 24.4936 155.992 24.5285L155.6 25.1499C155.583 25.1289 155.566 25.1089 155.547 25.0897C155.528 25.0705 155.508 25.0523 155.487 25.0352C155.466 25.0181 155.444 25.0021 155.421 24.9872C155.399 24.9723 155.376 24.9586 155.352 24.946C155.328 24.9335 155.304 24.9221 155.279 24.912C155.254 24.9019 155.229 24.8931 155.204 24.8856C155.178 24.8781 155.152 24.8719 155.125 24.8672C155.099 24.8623 155.073 24.8588 155.046 24.8567C154.653 24.8567 154.324 25.2289 154.324 25.7135C154.324 26.1982 154.666 26.5658 155.032 26.5658C155.06 26.564 155.088 26.5607 155.115 26.5559C155.142 26.5512 155.168 26.545 155.195 26.5374C155.222 26.5298 155.249 26.5209 155.275 26.5105C155.3 26.5001 155.325 26.4883 155.349 26.4753C155.374 26.4623 155.398 26.448 155.421 26.4324C155.444 26.4168 155.466 26.4001 155.487 26.3821C155.509 26.3642 155.529 26.3452 155.548 26.3252C155.568 26.3051 155.586 26.284 155.603 26.262L155.992 26.9016C155.962 26.9371 155.931 26.9709 155.898 27.003C155.865 27.0352 155.831 27.0654 155.795 27.0937C155.759 27.1221 155.722 27.1485 155.683 27.1729C155.643 27.1972 155.602 27.2193 155.562 27.2393C155.521 27.2592 155.478 27.277 155.435 27.2925C155.392 27.3078 155.348 27.3209 155.303 27.3317C155.259 27.3423 155.214 27.3505 155.168 27.3564C155.124 27.3622 155.078 27.3655 155.032 27.3664C154.309 27.3619 153.635 26.698 153.635 25.7075Z"
    fill="#FFFFFF">
  </path>
  <path
    d="M159.998 24.9098L159.385 24.9098L159.385 27.2919L158.704 27.2919L158.704 24.9098L158.089 24.9098L158.089 24.1243L159.998 24.1243L159.998 24.9098Z"
    fill="#FFFFFF">
  </path>
  <path
    d="M162.23 26.1403L162.23 24.1243L162.915 24.1243L162.915 26.1373C162.914 26.1508 162.914 26.1643 162.914 26.1779C162.915 26.1913 162.916 26.2048 162.917 26.2183C162.919 26.2316 162.921 26.2449 162.924 26.2581C162.927 26.2713 162.931 26.2844 162.935 26.2971C162.939 26.31 162.943 26.3226 162.949 26.3349C162.954 26.3473 162.96 26.3594 162.967 26.3711C162.973 26.3829 162.98 26.3942 162.988 26.4051C162.996 26.4162 163.004 26.4268 163.012 26.437C163.021 26.4472 163.031 26.4569 163.041 26.4662C163.051 26.4754 163.061 26.4842 163.071 26.4925C163.082 26.5007 163.092 26.5084 163.103 26.5156C163.115 26.5227 163.127 26.5292 163.139 26.5352C163.151 26.5412 163.163 26.5465 163.175 26.5513C163.188 26.556 163.201 26.56 163.213 26.5634C163.226 26.567 163.238 26.5698 163.251 26.5719C163.265 26.5741 163.279 26.5755 163.292 26.5764C163.305 26.5754 163.318 26.5739 163.331 26.5716C163.345 26.5694 163.358 26.5665 163.371 26.563C163.383 26.5594 163.395 26.5553 163.408 26.5505C163.42 26.5458 163.432 26.5404 163.444 26.5344C163.456 26.5284 163.468 26.5219 163.48 26.5147C163.491 26.5076 163.502 26.4999 163.513 26.4917C163.523 26.4834 163.533 26.4747 163.543 26.4655C163.553 26.4562 163.562 26.4466 163.571 26.4364C163.579 26.4262 163.587 26.4156 163.595 26.4047C163.603 26.3936 163.611 26.3823 163.618 26.3707C163.624 26.3589 163.63 26.3469 163.636 26.3346C163.641 26.3223 163.646 26.3097 163.651 26.297C163.655 26.2842 163.658 26.2712 163.661 26.2581C163.664 26.2449 163.666 26.2316 163.668 26.2181C163.67 26.2048 163.671 26.1913 163.671 26.1779C163.672 26.1643 163.672 26.1508 163.671 26.1373L163.671 24.1243L164.356 24.1243L164.356 26.1403C164.356 26.8665 163.879 27.38 163.293 27.38C162.707 27.38 162.23 26.8665 162.23 26.1403Z"
    fill="#FFFFFF">
  </path>
  <path
    d="M168.111 27.2919L167.426 25.9155L167.426 27.2919L166.746 27.2919L166.746 24.1243L167.718 24.1243C168.271 24.1243 168.665 24.5801 168.665 25.1544C168.666 25.1757 168.666 25.1971 168.665 25.2183C168.665 25.2397 168.664 25.261 168.662 25.2823C168.66 25.3036 168.657 25.3247 168.653 25.3458C168.65 25.3669 168.646 25.3878 168.641 25.4085C168.638 25.4294 168.633 25.4501 168.627 25.4705C168.621 25.491 168.614 25.5112 168.606 25.5313C168.599 25.5512 168.591 25.571 168.582 25.5905C168.574 25.61 168.565 25.6292 168.555 25.6481C168.545 25.667 168.534 25.6855 168.523 25.7037C168.512 25.7219 168.501 25.7398 168.489 25.7572C168.477 25.7746 168.465 25.7916 168.452 25.8082C168.438 25.8249 168.424 25.841 168.41 25.8567C168.396 25.8724 168.381 25.8876 168.365 25.9023C168.35 25.917 168.335 25.9312 168.319 25.945C168.303 25.9586 168.286 25.9718 168.269 25.9843C168.252 25.9969 168.235 26.0089 168.217 26.0203L168.903 27.2919L168.111 27.2919ZM167.423 25.5144L167.701 25.5144C167.711 25.5133 167.721 25.5117 167.73 25.5097C167.739 25.5077 167.748 25.5052 167.757 25.5023C167.767 25.4994 167.776 25.4961 167.783 25.4924C167.792 25.4888 167.801 25.4846 167.81 25.4801C167.818 25.4756 167.826 25.4708 167.834 25.4655C167.842 25.4602 167.85 25.4546 167.858 25.4486C167.865 25.4427 167.872 25.4364 167.879 25.4298C167.886 25.4231 167.893 25.4161 167.9 25.4088C167.906 25.4016 167.912 25.3942 167.918 25.3864C167.923 25.3786 167.928 25.3705 167.933 25.3622C167.938 25.3539 167.943 25.3454 167.948 25.3367C167.952 25.3279 167.955 25.319 167.958 25.3099C167.962 25.3008 167.965 25.2916 167.967 25.2823C167.97 25.273 167.972 25.2635 167.973 25.254C167.975 25.2445 167.977 25.2349 167.978 25.2252C167.979 25.2155 167.979 25.2059 167.979 25.1961C167.979 25.1864 167.979 25.1767 167.978 25.1671C167.977 25.1574 167.975 25.1478 167.973 25.1383C167.972 25.1287 167.97 25.1193 167.967 25.11C167.965 25.1007 167.962 25.0915 167.958 25.0824C167.955 25.0732 167.952 25.0643 167.948 25.0556C167.943 25.0469 167.938 25.0384 167.933 25.0301C167.928 25.0218 167.923 25.0137 167.918 25.0059C167.912 24.9981 167.906 24.9906 167.9 24.9835C167.893 24.9762 167.886 24.9692 167.879 24.9625C167.872 24.9559 167.865 24.9496 167.858 24.9437C167.85 24.9377 167.842 24.9321 167.834 24.9268C167.826 24.9215 167.818 24.9167 167.81 24.9122C167.801 24.9076 167.792 24.9035 167.783 24.8999C167.776 24.8962 167.767 24.8929 167.757 24.89C167.748 24.8871 167.739 24.8846 167.73 24.8826C167.721 24.8806 167.711 24.879 167.701 24.8779L167.423 24.8779L167.423 25.5144Z"
    fill="#FFFFFF">
  </path>
  <path
    d="M171.782 24.9067L171.782 25.3488L172.595 25.3488L172.595 26.0492L171.782 26.0492L171.782 26.5049L172.77 26.5049L172.77 27.2934L171.111 27.2934L171.111 24.1243L172.77 24.1243L172.77 24.9067L171.782 24.9067Z"
    fill="#FFFFFF">
  </path>
  <path
    d="M43.4537 20.9378L44.0122 14.0193L51.0619 14.0193L51.1487 12.8465L44.0961 12.8465L42.9102 9.98122L53.5056 9.98122L53.1792 14.0937C53.1701 14.1657 53.1541 14.2361 53.1313 14.3049C53.0983 14.4204 53.0609 14.5495 53.016 14.6893C52.971 14.829 52.9261 14.9658 52.8752 15.0934C52.8413 15.1878 52.7978 15.2774 52.7449 15.3623C52.7853 15.4656 52.8177 15.5714 52.8423 15.6798C52.8722 15.8013 52.8977 15.9198 52.9186 16.0353C52.9411 16.1508 52.9576 16.2556 52.968 16.3528C52.9785 16.45 52.9845 16.5154 52.9845 16.5549L52.8213 18.5526C52.8092 18.7183 52.7863 18.8825 52.7524 19.045C52.7186 19.2076 52.6742 19.367 52.6192 19.5234C52.5248 19.7918 52.396 20.042 52.2328 20.2739C52.1664 20.3704 52.0915 20.4598 52.0084 20.542C51.9253 20.6243 51.8354 20.698 51.7387 20.7631C51.7009 20.7897 51.6613 20.8135 51.6201 20.8343C51.5789 20.8552 51.5364 20.8729 51.4927 20.8875C51.449 20.9022 51.4044 20.9136 51.3591 20.9218C51.3138 20.93 51.2681 20.9348 51.2221 20.9363L43.4537 20.9378ZM45.9019 16.883L45.8046 18.0741L50.7325 18.0741L50.8298 16.883L45.9019 16.883Z"
    fill="#FFFFFF">
  </path>
  <path d="M54.334 9.98122L57.8693 9.98122L56.9978 20.9363L54.8775 20.9363L55.5184 12.8449L54.334 9.98122Z"
    fill="#FFFFFF">
  </path>
  <path
    d="M67.768 14.4416L67.2454 20.9377L58.0425 20.9377L58.7388 12.1931C58.7459 12.0524 58.7618 11.9128 58.7862 11.7741C58.8107 11.6355 58.8435 11.4989 58.8848 11.3644C58.9261 11.2299 58.9755 11.0985 59.033 10.9703C59.0905 10.8421 59.1556 10.718 59.2284 10.5979C59.4959 10.1928 59.9127 9.99025 60.4787 9.99025L68.1153 9.99025L67.8877 12.854L60.8276 12.854L60.4143 18.0618L65.3557 18.0618L65.6552 14.4492L67.768 14.4416Z"
    fill="#FFFFFF">
  </path>
  <path
    d="M73.1959 12.8465L70.1278 12.8465L68.9419 9.98122L78.9504 9.98122L78.7228 12.8449L75.3282 12.8449L74.6858 20.9363L72.5536 20.9363L73.1959 12.8465Z"
    fill="#FFFFFF">
  </path>
  <path
    d="M87.6324 9.98122C88.1969 9.98122 88.5878 10.1863 88.8019 10.5889C89.016 10.9915 89.1014 11.5308 89.0355 12.1841L88.5234 18.545C88.4665 19.2758 88.2658 19.8561 87.9244 20.2845C87.9051 20.3102 87.885 20.3352 87.8642 20.3596C87.8434 20.384 87.8219 20.4077 87.7997 20.4308C87.7775 20.454 87.7547 20.4765 87.7311 20.4983C87.7076 20.52 87.6836 20.541 87.6589 20.5613C87.6342 20.5817 87.6089 20.6013 87.583 20.6201C87.5573 20.6389 87.5309 20.6569 87.504 20.6742C87.4771 20.6914 87.4498 20.7078 87.4219 20.7234C87.3941 20.7391 87.3658 20.7539 87.3372 20.7678C87.3084 20.7818 87.2793 20.7948 87.2499 20.807C87.2204 20.8193 87.1907 20.8305 87.1606 20.8409C87.1305 20.8513 87.1001 20.8608 87.0694 20.8694C87.0388 20.878 87.0079 20.8857 86.9769 20.8925C86.9457 20.8993 86.9144 20.9051 86.883 20.91C86.8515 20.915 86.82 20.919 86.7884 20.922C86.7566 20.9249 86.7249 20.927 86.6931 20.9281C86.6614 20.9293 86.6296 20.9295 86.5978 20.9287L80.8658 20.9287C80.8356 20.9303 80.8054 20.9309 80.7752 20.9305C80.7449 20.9301 80.7147 20.9287 80.6846 20.9263C80.6545 20.9237 80.6245 20.9202 80.5946 20.9158C80.5647 20.9113 80.5349 20.9059 80.5054 20.8995C80.4758 20.893 80.4465 20.8856 80.4175 20.8772C80.3884 20.8688 80.3597 20.8593 80.3312 20.8489C80.3028 20.8386 80.2747 20.8273 80.2469 20.815C80.2192 20.8028 80.1919 20.7897 80.165 20.7757C80.1382 20.7616 80.1118 20.7466 80.0859 20.7307C80.0601 20.7149 80.0347 20.6982 80.0099 20.6806C79.9851 20.6631 79.961 20.6447 79.9374 20.6256C79.9137 20.6065 79.8908 20.5865 79.8685 20.5657C79.8463 20.5451 79.8247 20.5237 79.8037 20.5015C79.7828 20.4793 79.7627 20.4565 79.7433 20.433C79.7239 20.4095 79.7053 20.3853 79.6875 20.3605C79.6696 20.3358 79.6526 20.3105 79.6364 20.2845C79.3609 19.8561 79.2521 19.2763 79.31 18.545L79.6499 14.4037L81.7822 14.4037L81.4827 18.0741L86.433 18.0741L86.8463 12.8465L79.7637 12.8465L79.8176 12.1932C79.8251 12.0523 79.8413 11.9125 79.8661 11.7737C79.891 11.635 79.9243 11.4984 79.9662 11.3639C80.0079 11.2294 80.0578 11.098 80.1159 10.9699C80.174 10.8417 80.2398 10.7177 80.3132 10.598C80.5858 10.1929 81.0045 9.99034 81.5695 9.99034L87.6324 9.98122Z"
    fill="#FFFFFF">
  </path>
  <path
    d="M91.0913 14.4992L97.6079 14.4992L97.7382 12.8463L91.2216 12.8463L90.0356 9.98109L98.6665 9.98109C98.7251 9.97866 98.7836 9.98029 98.842 9.98595C98.9004 9.99163 98.9582 10.0014 99.0153 10.0151C99.0724 10.0288 99.1283 10.0464 99.183 10.068C99.2376 10.0895 99.2906 10.1147 99.3419 10.1437C99.3853 10.1709 99.4266 10.2011 99.4658 10.2343C99.505 10.2676 99.5416 10.3035 99.5757 10.3421C99.6098 10.3806 99.641 10.4215 99.6693 10.4645C99.6976 10.5077 99.7227 10.5526 99.7447 10.5994C99.7948 10.7101 99.8349 10.8244 99.865 10.9423C99.8953 11.0602 99.9151 11.1799 99.9243 11.3013C99.9485 11.596 99.9485 11.8907 99.9243 12.1855L99.7147 14.9793C99.7033 15.1453 99.6803 15.3096 99.6457 15.4723C99.6111 15.6349 99.5653 15.7941 99.5081 15.9501C99.4101 16.2166 99.2814 16.4667 99.1217 16.7006C99.0569 16.7967 98.9837 16.8859 98.9024 16.9681C98.8211 17.0504 98.733 17.1242 98.6381 17.1898C98.6015 17.2162 98.5633 17.2398 98.5234 17.2606C98.4835 17.2812 98.4422 17.2989 98.3997 17.3136C98.3573 17.3283 98.314 17.3398 98.2699 17.3481C98.2258 17.3563 98.1813 17.3612 98.1365 17.363L92.984 17.363L92.701 20.9377L90.5807 20.9377L91.0913 14.4992Z"
    fill="#FFFFFF">
  </path>
  <path
    d="M105.353 9.98122L108.421 9.98122L111.245 14.9217L114.861 9.98122L116.536 9.98122L115.666 20.9363L113.534 20.9363L113.983 15.2666L110.882 19.5204L108.446 15.2666L107.997 20.9363L105.875 20.9363L106.517 12.807L105.353 9.98122Z"
    fill="#FFFFFF">
  </path>
  <path
    d="M119.799 9.98122L123.28 9.98122L126.575 20.9363L124.179 20.9363L123.28 18.0498L120.257 18.0498L118.875 20.9363L116.493 20.9363L119.136 15.1891L122.454 15.1891L122.025 13.7306L119.842 13.7306L120.615 11.982L119.799 9.98122Z"
    fill="#FFFFFF">
  </path>
  <path
    d="M128.056 9.98122L131.091 9.98122L135.352 15.9411L135.821 9.98274L137.964 9.98274L137.094 20.9378L135.487 20.9378L131.19 15.0372L130.721 20.9378L128.601 20.9378L129.242 12.8465L128.056 9.98122Z"
    fill="#FFFFFF">
  </path>
  <path
    d="M141.219 9.98122L144.701 9.98122L147.995 20.9363L145.599 20.9363L144.701 18.0498L141.676 18.0498L140.295 20.9363L137.913 20.9363L140.556 15.1891L143.874 15.1891L143.45 13.7291L141.263 13.7291L142.035 11.9805L141.219 9.98122Z"
    fill="#FFFFFF">
  </path>
  <path
    d="M158.548 14.4416L158.027 20.9377L148.829 20.9377L149.523 12.1931C149.531 12.0525 149.547 11.9129 149.571 11.7743C149.596 11.6357 149.629 11.4992 149.67 11.3647C149.712 11.2302 149.761 11.0988 149.818 10.9706C149.875 10.8423 149.94 10.7181 150.013 10.5979C150.283 10.1928 150.7 9.99025 151.265 9.99025L158.901 9.99025L158.672 12.854L151.612 12.854L151.199 18.0618L156.14 18.0618L156.44 14.4492L158.548 14.4416Z"
    fill="#FFFFFF">
  </path>
  <path
    d="M169.319 9.98122L169.09 12.8449L160.91 12.8449L159.724 9.98122L169.319 9.98122ZM160.496 18.0331L168.666 18.0331L168.437 20.9348L160.267 20.9348L160.496 18.0331ZM160.823 13.9965L166.926 13.9965L166.697 16.883L160.594 16.883L160.823 13.9965Z"
    fill="#FFFFFF">
  </path>
  <path
    d="M178.696 9.98122C179.219 9.98122 179.578 10.1838 179.774 10.5889C179.969 10.994 180.038 11.5258 179.98 12.1841L179.762 14.9703C179.704 15.7016 179.501 16.2657 179.152 16.6627C179.11 16.7109 179.066 16.7567 179.019 16.8001C178.972 16.8434 178.923 16.8841 178.872 16.9222C178.82 16.9602 178.767 16.9953 178.714 17.0276C178.659 17.0599 178.602 17.089 178.543 17.1152C178.485 17.1413 178.426 17.1642 178.366 17.184C178.305 17.2037 178.244 17.2201 178.182 17.233C178.12 17.2461 178.058 17.2558 177.995 17.2621C177.932 17.2682 177.868 17.271 177.805 17.2704L179.588 20.9165L176.956 20.9165L175.15 17.3418L173.094 17.3418L172.811 20.9165L170.691 20.9165L171.203 14.4781L177.664 14.4781L177.794 12.8252L171.333 12.8252L170.146 9.98122L178.696 9.98122Z"
    fill="#FFFFFF">
  </path>
</svg>