<?xml version="1.0"?>
<!--
  ~ Licensed to the Apache Software Foundation (ASF) under one
  ~ or more contributor license agreements.  See the NOTICE file
  ~ distributed with this work for additional information
  ~ regarding copyright ownership.  The ASF licenses this file
  ~ to you under the Apache License, Version 2.0 (the
  ~ "License"); you may not use this file except in compliance
  ~ with the License.  You may obtain a copy of the License at
  ~
  ~   http://www.apache.org/licenses/LICENSE-2.0
  ~
  ~ Unless required by applicable law or agreed to in writing,
  ~ software distributed under the License is distributed on an
  ~ "AS IS" BASIS, WITHOUT WARRANTIES OR CONDITIONS OF ANY
  ~ KIND, either express or implied.  See the License for the
  ~ specific language governing permissions and limitations
  ~ under the License.
-->
<svg xmlns="http://www.w3.org/2000/svg" width="1em" height="1em" viewBox="0 0 32 32">
  <path fill="currentColor"
    d="M27.85 29H30l-6-15h-2.35l-6 15h2.15l1.6-4h6.85zm-7.65-6l2.62-6.56L25.45 23zM18 7V5h-7V2H9v3H2v2h10.74a14.71 14.71 0 0 1-3.19 6.18A13.5 13.5 0 0 1 7.26 9h-2.1a16.47 16.47 0 0 0 3 5.58A16.84 16.84 0 0 1 3 18l.75 1.86A18.47 18.47 0 0 0 9.53 16a16.92 16.92 0 0 0 5.76 3.84L16 18a14.48 14.48 0 0 1-5.12-3.37A17.64 17.64 0 0 0 14.8 7z" />
</svg>