<?xml version="1.0" encoding="UTF-8"?>
<!--
  ~ Licensed to the Apache Software Foundation (ASF) under one
  ~ or more contributor license agreements.  See the NOTICE file
  ~ distributed with this work for additional information
  ~ regarding copyright ownership.  The ASF licenses this file
  ~ to you under the Apache License, Version 2.0 (the
  ~ "License"); you may not use this file except in compliance
  ~ with the License.  You may obtain a copy of the License at
  ~
  ~   http://www.apache.org/licenses/LICENSE-2.0
  ~
  ~ Unless required by applicable law or agreed to in writing,
  ~ software distributed under the License is distributed on an
  ~ "AS IS" BASIS, WITHOUT WARRANTIES OR CONDITIONS OF ANY
  ~ KIND, either express or implied.  See the License for the
  ~ specific language governing permissions and limitations
  ~ under the License.
-->
<svg xmlns="http://www.w3.org/2000/svg" xmlns:xlink="http://www.w3.org/1999/xlink" width="24" height="24"
  viewBox="0 0 24 24" fill="none">
  <path
    d="M2.50186 21.1155C2.50186 21.3279 2.67904 21.5 2.89761 21.5L21.1012 21.5C21.3197 21.5 21.4969 21.3279 21.4969 21.1157L21.4969 20.6565C21.506 20.5182 21.5245 19.8277 21.0694 19.0644C20.7824 18.5832 20.3659 18.1674 19.8314 17.8287C19.1848 17.4189 18.3623 17.122 17.3673 16.9432C17.36 16.9423 16.6223 16.8445 15.8666 16.6515C14.5505 16.3153 14.4354 16.0178 14.4347 16.0149C14.427 15.9855 14.4157 15.9573 14.4014 15.9307C14.3906 15.8752 14.364 15.6664 14.4149 15.1068C14.544 13.6855 15.3064 12.8455 15.919 12.1706C16.1122 11.9578 16.2947 11.7567 16.4352 11.5596C17.0414 10.7091 17.0976 9.74195 17.1002 9.682C17.1002 9.56055 17.0862 9.4607 17.0564 9.36815C16.9968 9.18295 16.8849 9.06755 16.8032 8.9833L16.8026 8.9827C16.782 8.9615 16.7626 8.9414 16.7467 8.92295C16.7406 8.9159 16.7245 8.89725 16.7392 8.8015C16.7929 8.44905 16.8252 8.15395 16.8407 7.8728C16.8684 7.3719 16.8899 6.6228 16.7607 5.89375C16.7448 5.76925 16.7174 5.63775 16.6747 5.4811C16.5382 4.97907 16.3189 4.54986 16.0142 4.19562C15.9618 4.13861 14.6878 2.7964 10.9894 2.521C10.478 2.48293 9.97245 2.50344 9.4748 2.52887C9.35485 2.5348 9.1906 2.54294 9.0369 2.58277C8.65505 2.68168 8.55315 2.92371 8.5264 3.05917C8.48205 3.28354 8.56 3.45808 8.61155 3.57359C8.61905 3.59036 8.6283 3.61106 8.61215 3.66498C8.5263 3.79794 8.39125 3.9178 8.25355 4.03136C8.21375 4.06519 7.28635 4.86484 7.23535 5.90945C7.09785 6.7039 7.10825 7.9417 7.27085 8.7972C7.2803 8.84445 7.29425 8.9144 7.2716 8.96165C7.09675 9.11835 6.89855 9.29595 6.89905 9.7012C6.90115 9.74195 6.9574 10.7091 7.5636 11.5596C7.704 11.7565 7.8863 11.9574 8.07935 12.1701L8.0798 12.1706C8.6924 12.8455 9.45475 13.6855 9.5839 15.1067C9.6347 15.6664 9.6081 15.8752 9.59735 15.9307C9.583 15.9572 9.5718 15.9855 9.5641 16.0149C9.5633 16.0178 9.4487 16.3144 8.1386 16.6498C7.3828 16.8433 6.63875 16.9422 6.61655 16.9454C5.6497 17.1087 4.83219 17.3982 4.18676 17.8057C3.65407 18.1422 3.23677 18.5588 2.94645 19.0438C2.48259 19.819 2.49513 20.5249 2.50186 20.6537L2.50186 21.1155Z"
    stroke="rgba(51, 51, 51, 1)" stroke-width="2" stroke-linejoin="round">
  </path>
</svg>