<?xml version="1.0" encoding="UTF-8"?>
<!--
  ~ Licensed to the Apache Software Foundation (ASF) under one
  ~ or more contributor license agreements.  See the NOTICE file
  ~ distributed with this work for additional information
  ~ regarding copyright ownership.  The ASF licenses this file
  ~ to you under the Apache License, Version 2.0 (the
  ~ "License"); you may not use this file except in compliance
  ~ with the License.  You may obtain a copy of the License at
  ~
  ~   http://www.apache.org/licenses/LICENSE-2.0
  ~
  ~ Unless required by applicable law or agreed to in writing,
  ~ software distributed under the License is distributed on an
  ~ "AS IS" BASIS, WITHOUT WARRANTIES OR CONDITIONS OF ANY
  ~ KIND, either express or implied.  See the License for the
  ~ specific language governing permissions and limitations
  ~ under the License.
-->
<svg xmlns="http://www.w3.org/2000/svg" xmlns:xlink="http://www.w3.org/1999/xlink" width="16" height="16"
  viewBox="0 0 16 16" fill="none">
  <path d="M14.6667 1.33334L1.33333 1.33334L1.33333 6.66668L14.6667 6.66668L14.6667 1.33334Z"
    stroke="currentColor" stroke-width="1.3333333333333333" stroke-linejoin="round">
  </path>
  <path d="M14.6667 9.33334L1.33333 9.33334L1.33333 14.6667L14.6667 14.6667L14.6667 9.33334Z"
    stroke="currentColor" stroke-width="1.3333333333333333" stroke-linejoin="round">
  </path>
  <path
    d="M4.33333 3.33334L3.66667 3.33334C3.48257 3.33334 3.33333 3.48258 3.33333 3.66668L3.33333 4.33334C3.33333 4.51744 3.48257 4.66668 3.66667 4.66668L4.33333 4.66668C4.51743 4.66668 4.66667 4.51744 4.66667 4.33334L4.66667 3.66668C4.66667 3.48258 4.51743 3.33334 4.33333 3.33334Z"
    fill="currentColor">
  </path>
  <path
    d="M4.33333 11.3333L3.66667 11.3333C3.48257 11.3333 3.33333 11.4826 3.33333 11.6667L3.33333 12.3333C3.33333 12.5174 3.48257 12.6667 3.66667 12.6667L4.33333 12.6667C4.51743 12.6667 4.66667 12.5174 4.66667 12.3333L4.66667 11.6667C4.66667 11.4826 4.51743 11.3333 4.33333 11.3333Z"
    fill="currentColor">
  </path>
  <path
    d="M7 3.33334L6.33333 3.33334C6.14923 3.33334 6 3.48258 6 3.66668L6 4.33334C6 4.51744 6.14923 4.66668 6.33333 4.66668L7 4.66668C7.1841 4.66668 7.33333 4.51744 7.33333 4.33334L7.33333 3.66668C7.33333 3.48258 7.1841 3.33334 7 3.33334Z"
    fill="currentColor">
  </path>
  <path
    d="M7 11.3333L6.33333 11.3333C6.14923 11.3333 6 11.4826 6 11.6667L6 12.3333C6 12.5174 6.14923 12.6667 6.33333 12.6667L7 12.6667C7.1841 12.6667 7.33333 12.5174 7.33333 12.3333L7.33333 11.6667C7.33333 11.4826 7.1841 11.3333 7 11.3333Z"
    fill="currentColor">
  </path>
</svg>