<?xml version="1.0" encoding="UTF-8"?>
<!--
  ~ Licensed to the Apache Software Foundation (ASF) under one
  ~ or more contributor license agreements.  See the NOTICE file
  ~ distributed with this work for additional information
  ~ regarding copyright ownership.  The ASF licenses this file
  ~ to you under the Apache License, Version 2.0 (the
  ~ "License"); you may not use this file except in compliance
  ~ with the License.  You may obtain a copy of the License at
  ~
  ~   http://www.apache.org/licenses/LICENSE-2.0
  ~
  ~ Unless required by applicable law or agreed to in writing,
  ~ software distributed under the License is distributed on an
  ~ "AS IS" BASIS, WITHOUT WARRANTIES OR CONDITIONS OF ANY
  ~ KIND, either express or implied.  See the License for the
  ~ specific language governing permissions and limitations
  ~ under the License.
-->
<svg xmlns="http://www.w3.org/2000/svg" xmlns:xlink="http://www.w3.org/1999/xlink" width="16" height="16"
  viewBox="0 0 16 16" fill="none">
  <path
    d="M1.33333 8.00001L1.33333 4.00001L4.33333 4.00001L4.33333 3.33334C4.33333 2.22877 5.22877 1.33334 6.33333 1.33334C7.4379 1.33334 8.33333 2.22877 8.33333 3.33334L8.33333 4.00001L11.3333 4.00001L11.3333 8.00001L12.6667 8.00001C13.7712 8.00001 14.6667 8.89544 14.6667 10C14.6667 11.1046 13.7712 12 12.6667 12L11.3333 12L11.3333 14.6667L1.33333 14.6667L1.33333 12L2.66667 12C3.77123 12 4.66667 11.1046 4.66667 10C4.66667 8.89544 3.77123 8.00001 2.66667 8.00001L1.33333 8.00001Z"
    stroke="currentColor" stroke-width="1.3333333333333333" stroke-linejoin="round">
  </path>
</svg>