<?xml version="1.0" encoding="UTF-8"?>
<!--
  ~ Licensed to the Apache Software Foundation (ASF) under one
  ~ or more contributor license agreements.  See the NOTICE file
  ~ distributed with this work for additional information
  ~ regarding copyright ownership.  The ASF licenses this file
  ~ to you under the Apache License, Version 2.0 (the
  ~ "License"); you may not use this file except in compliance
  ~ with the License.  You may obtain a copy of the License at
  ~
  ~   http://www.apache.org/licenses/LICENSE-2.0
  ~
  ~ Unless required by applicable law or agreed to in writing,
  ~ software distributed under the License is distributed on an
  ~ "AS IS" BASIS, WITHOUT WARRANTIES OR CONDITIONS OF ANY
  ~ KIND, either express or implied.  See the License for the
  ~ specific language governing permissions and limitations
  ~ under the License.
-->
<svg xmlns="http://www.w3.org/2000/svg" xmlns:xlink="http://www.w3.org/1999/xlink" width="16" height="16"
  viewBox="0 0 16 16" fill="none">
  <path stroke="rgba(22, 119, 255, 1)" stroke-width="1.3333333333333333" stroke-linejoin="round" stroke-linecap="round"
    d="M4.33301 4.14395L4.33301 2.60425C4.33301 2.08648 4.75274 1.66675 5.27051 1.66675L13.3955 1.66675C13.9133 1.66675 14.333 2.08648 14.333 2.60425L14.333 10.7292C14.333 11.247 13.9133 11.6667 13.3955 11.6667L11.8384 11.6667">
  </path>
  <path
    d="M10.7295 4.33325L2.60449 4.33325C2.08673 4.33325 1.66699 4.75299 1.66699 5.27075L1.66699 13.3958C1.66699 13.9135 2.08673 14.3333 2.60449 14.3333L10.7295 14.3333C11.2473 14.3333 11.667 13.9135 11.667 13.3958L11.667 5.27075C11.667 4.75299 11.2473 4.33325 10.7295 4.33325Z"
    stroke="rgba(22, 119, 255, 1)" stroke-width="1.3333333333333333" stroke-linejoin="round">
  </path>
</svg>