<?xml version="1.0" encoding="UTF-8"?>
<!--
  ~ Licensed to the Apache Software Foundation (ASF) under one
  ~ or more contributor license agreements.  See the NOTICE file
  ~ distributed with this work for additional information
  ~ regarding copyright ownership.  The ASF licenses this file
  ~ to you under the Apache License, Version 2.0 (the
  ~ "License"); you may not use this file except in compliance
  ~ with the License.  You may obtain a copy of the License at
  ~
  ~   http://www.apache.org/licenses/LICENSE-2.0
  ~
  ~ Unless required by applicable law or agreed to in writing,
  ~ software distributed under the License is distributed on an
  ~ "AS IS" BASIS, WITHOUT WARRANTIES OR CONDITIONS OF ANY
  ~ KIND, either express or implied.  See the License for the
  ~ specific language governing permissions and limitations
  ~ under the License.
-->
<svg xmlns="http://www.w3.org/2000/svg" xmlns:xlink="http://www.w3.org/1999/xlink" width="20" height="20"
  viewBox="0 0 20 20" fill="none">
  <path
    d="M10 1.66667C5.39762 1.66667 1.66667 5.39762 1.66667 10C1.66667 14.6024 5.39762 18.3333 10 18.3333C14.6024 18.3333 18.3333 14.6024 18.3333 10C18.3333 5.39762 14.6024 1.66667 10 1.66667ZM0 10C0 4.47717 4.47717 0 10 0C15.5228 0 20 4.47717 20 10C20 15.5228 15.5228 20 10 20C4.47717 20 0 15.5228 0 10Z"
    fill-rule="evenodd" fill="#FFFFFF">
  </path>
  <path
    d="M7.99304 18.9465C7.91242 18.8425 7.91242 17.9156 7.99304 16.1658C7.12975 16.1957 6.58433 16.1358 6.35679 15.9861C6.01542 15.7617 5.67371 15.0695 5.37046 14.5816C5.06725 14.0938 4.39429 14.0167 4.12252 13.9076C3.85076 13.7986 3.78254 13.354 4.87137 13.6902C5.96017 14.0264 6.01329 14.942 6.35679 15.1561C6.70025 15.3701 7.52146 15.2765 7.89367 15.105C8.26593 14.9335 8.23851 14.2949 8.30489 14.042C8.3888 13.8058 8.09304 13.7535 8.08654 13.7516C7.72312 13.7516 5.81412 13.3364 5.28979 11.4878C4.76542 9.63916 5.44087 8.43087 5.80121 7.91146C6.04146 7.56516 6.02021 6.82716 5.73746 5.69737C6.76396 5.56621 7.55612 5.88929 8.11392 6.66671C8.11446 6.67116 8.84522 6.23216 10.0001 6.23216C11.155 6.23216 11.5647 6.58975 11.8809 6.66671C12.1971 6.74366 12.45 5.30587 14.4028 5.69737C13.9951 6.49871 13.6537 7.50004 13.9143 7.91146C14.1749 8.32287 15.1977 9.63112 14.5694 11.4878C14.1506 12.7256 13.3272 13.4801 12.0993 13.7516C11.9586 13.7965 11.8881 13.869 11.8881 13.969C11.8881 14.119 12.0785 14.1354 12.3527 14.8382C12.5356 15.3068 12.5488 16.645 12.3923 18.8529C11.9961 18.9538 11.6878 19.0215 11.4676 19.0561C11.077 19.1175 10.6529 19.1519 10.2362 19.1652C9.81955 19.1785 9.67484 19.177 9.09876 19.1234C8.71476 19.0876 8.34618 19.0287 7.99304 18.9465Z"
    fill-rule="evenodd" fill="#FFFFFF">
  </path>
</svg>