<?xml version="1.0" encoding="UTF-8"?>
<!--
  ~ Licensed to the Apache Software Foundation (ASF) under one
  ~ or more contributor license agreements.  See the NOTICE file
  ~ distributed with this work for additional information
  ~ regarding copyright ownership.  The ASF licenses this file
  ~ to you under the Apache License, Version 2.0 (the
  ~ "License"); you may not use this file except in compliance
  ~ with the License.  You may obtain a copy of the License at
  ~
  ~   http://www.apache.org/licenses/LICENSE-2.0
  ~
  ~ Unless required by applicable law or agreed to in writing,
  ~ software distributed under the License is distributed on an
  ~ "AS IS" BASIS, WITHOUT WARRANTIES OR CONDITIONS OF ANY
  ~ KIND, either express or implied.  See the License for the
  ~ specific language governing permissions and limitations
  ~ under the License.
-->
<svg xmlns="http://www.w3.org/2000/svg" xmlns:xlink="http://www.w3.org/1999/xlink" width="16" height="16"
  viewBox="0 0 16 16" fill="none">
  <path fill="currentColor"
    d="M3 1.33333L13 1.33333C13.9205 1.33333 14.6667 2.07953 14.6667 3L14.6667 10.3333C14.6667 11.2538 13.9205 12 13 12L3 12C2.07953 12 1.33333 11.2538 1.33333 10.3333L1.33333 3C1.33333 2.07953 2.07953 1.33333 3 1.33333ZM3 2.66667C2.81591 2.66667 2.66667 2.81591 2.66667 3L2.66667 10.3333C2.66667 10.5174 2.81591 10.6667 3 10.6667L13 10.6667C13.1841 10.6667 13.3333 10.5174 13.3333 10.3333L13.3333 3C13.3333 2.81591 13.1841 2.66667 13 2.66667L3 2.66667Z">
  </path>
  <path stroke="currentColor" stroke-width="1.3333333333333333" stroke-linejoin="round" stroke-linecap="round"
    d="M4.66667 14L11.3333 14">
  </path>
  <path stroke="currentColor" stroke-width="1.3333333333333333" stroke-linejoin="round" stroke-linecap="round"
    d="M8 11.3333L8 14">
  </path>
</svg>