<?xml version="1.0" encoding="UTF-8"?>
<!--
  ~ Licensed to the Apache Software Foundation (ASF) under one
  ~ or more contributor license agreements.  See the NOTICE file
  ~ distributed with this work for additional information
  ~ regarding copyright ownership.  The ASF licenses this file
  ~ to you under the Apache License, Version 2.0 (the
  ~ "License"); you may not use this file except in compliance
  ~ with the License.  You may obtain a copy of the License at
  ~
  ~   http://www.apache.org/licenses/LICENSE-2.0
  ~
  ~ Unless required by applicable law or agreed to in writing,
  ~ software distributed under the License is distributed on an
  ~ "AS IS" BASIS, WITHOUT WARRANTIES OR CONDITIONS OF ANY
  ~ KIND, either express or implied.  See the License for the
  ~ specific language governing permissions and limitations
  ~ under the License.
-->
<svg xmlns="http://www.w3.org/2000/svg" xmlns:xlink="http://www.w3.org/1999/xlink" width="16" height="16"
  viewBox="0 0 16 16" fill="none">
  <path
    d="M6 2L2.66667 2C2.29848 2 2 2.29848 2 2.66667L2 6C2 6.3682 2.29848 6.66667 2.66667 6.66667L6 6.66667C6.3682 6.66667 6.66667 6.3682 6.66667 6L6.66667 2.66667C6.66667 2.29848 6.3682 2 6 2Z"
    stroke="currentColor" stroke-width="1.3333333333333333" stroke-linejoin="round">
  </path>
  <path
    d="M6 9.33334L2.66667 9.33334C2.29848 9.33334 2 9.63181 2 10L2 13.3333C2 13.7015 2.29848 14 2.66667 14L6 14C6.3682 14 6.66667 13.7015 6.66667 13.3333L6.66667 10C6.66667 9.63181 6.3682 9.33334 6 9.33334Z"
    stroke="currentColor" stroke-width="1.3333333333333333" stroke-linejoin="round">
  </path>
  <path
    d="M13.3333 2L10 2C9.6318 2 9.33333 2.29848 9.33333 2.66667L9.33333 6C9.33333 6.3682 9.6318 6.66667 10 6.66667L13.3333 6.66667C13.7015 6.66667 14 6.3682 14 6L14 2.66667C14 2.29848 13.7015 2 13.3333 2Z"
    stroke="currentColor" stroke-width="1.3333333333333333">
  </path>
  <path
    d="M13.3333 9.33334L10 9.33334C9.6318 9.33334 9.33333 9.63181 9.33333 10L9.33333 13.3333C9.33333 13.7015 9.6318 14 10 14L13.3333 14C13.7015 14 14 13.7015 14 13.3333L14 10C14 9.63181 13.7015 9.33334 13.3333 9.33334Z"
    stroke="currentColor" stroke-width="1.3333333333333333">
  </path>
</svg>