<?xml version="1.0" encoding="UTF-8"?>
<!--
  ~ Licensed to the Apache Software Foundation (ASF) under one
  ~ or more contributor license agreements.  See the NOTICE file
  ~ distributed with this work for additional information
  ~ regarding copyright ownership.  The ASF licenses this file
  ~ to you under the Apache License, Version 2.0 (the
  ~ "License"); you may not use this file except in compliance
  ~ with the License.  You may obtain a copy of the License at
  ~
  ~   http://www.apache.org/licenses/LICENSE-2.0
  ~
  ~ Unless required by applicable law or agreed to in writing,
  ~ software distributed under the License is distributed on an
  ~ "AS IS" BASIS, WITHOUT WARRANTIES OR CONDITIONS OF ANY
  ~ KIND, either express or implied.  See the License for the
  ~ specific language governing permissions and limitations
  ~ under the License.
-->
<svg xmlns="http://www.w3.org/2000/svg" xmlns:xlink="http://www.w3.org/1999/xlink" width="16" height="16"
    viewBox="0 0 16 16" fill="none">
    <g opacity="0">
        <rect x="0" y="0" width="16" height="16" fill="#000000">
        </rect>
    </g>
    <path
        d="M1 8C1 11.87 4.13 15 8 15C11.87 15 15 11.87 15 8C15 4.13 11.87 1 8 1C4.13 1 1 4.13 1 8ZM7.62 9.8125C7.55 9.8125 7.5 9.7525 7.5 9.6925L7.5 9.3525C7.5 8.9925 7.6 8.6325 7.81 8.3325C8.01 8.0425 8.29 7.8225 8.62 7.7025C9.16 7.4925 9.5 7.0525 9.5 6.5625C9.5 5.8725 8.83 5.3125 8 5.3125C7.17 5.3125 6.5 5.8725 6.5 6.5625L6.5 6.6825C6.5 6.7525 6.44 6.8025 6.38 6.8025L5.62 6.8025C5.56 6.8025 5.5 6.7525 5.5 6.6825L5.5 6.5625C5.5 5.9525 5.77 5.3725 6.26 4.9525C6.73 4.5425 7.34 4.3125 8 4.3125C8.66 4.3125 9.27 4.5325 9.74 4.9525C10.23 5.3725 10.5 5.9525 10.5 6.5625C10.5 7.4625 9.9 8.2825 8.98 8.6325C8.69 8.7425 8.5 9.0225 8.5 9.3325L8.5 9.6925C8.5 9.7525 8.44 9.8125 8.37 9.8125L7.62 9.8125ZM8.005 12.0625C8.345 12.0625 8.625 11.7825 8.625 11.4425C8.625 11.0925 8.345 10.8125 8.005 10.8125C7.655 10.8125 7.375 11.0925 7.375 11.4425C7.375 11.7825 7.655 12.0625 8.005 12.0625Z"
        fill-rule="evenodd" fill="#000000">
    </path>
</svg>