<?xml version="1.0" standalone="no"?>
<!--
  ~ Licensed to the Apache Software Foundation (ASF) under one
  ~ or more contributor license agreements.  See the NOTICE file
  ~ distributed with this work for additional information
  ~ regarding copyright ownership.  The ASF licenses this file
  ~ to you under the Apache License, Version 2.0 (the
  ~ "License"); you may not use this file except in compliance
  ~ with the License.  You may obtain a copy of the License at
  ~
  ~   http://www.apache.org/licenses/LICENSE-2.0
  ~
  ~ Unless required by applicable law or agreed to in writing,
  ~ software distributed under the License is distributed on an
  ~ "AS IS" BASIS, WITHOUT WARRANTIES OR CONDITIONS OF ANY
  ~ KIND, either express or implied.  See the License for the
  ~ specific language governing permissions and limitations
  ~ under the License.
-->
<!DOCTYPE svg PUBLIC "-//W3C//DTD SVG 1.1//EN" "http://www.w3.org/Graphics/SVG/1.1/DTD/svg11.dtd"><svg t="1722394194603"
  class="icon" viewBox="0 0 1756 1024" version="1.1" xmlns="http://www.w3.org/2000/svg" p-id="1491"
  xmlns:xlink="http://www.w3.org/1999/xlink" width="342.96875" height="200">
  <path
    d="M1220.672 487.107657c-0.215771-0.374857-0.453486-0.731429-0.676571-1.098971-6.266514-11.536457-16.010971-21.813029-28.692114-29.134629l-462.6944-267.136c-11.918629-6.880914-24.797257-10.203429-37.198629-10.296686-0.239543-0.003657-0.475429-0.020114-0.7168-0.020114-0.142629 0-0.2816 0.010971-0.424229 0.0128-0.778971 0.007314-1.552457 0.034743-2.327771 0.065829-0.164571 0.007314-0.329143 0.009143-0.493714 0.018286-20.598857 1.000229-39.416686 11.029943-49.634743 28.728686-4.885943 8.462629-7.259429 17.751771-7.389257 27.1488-0.751543 4.337371-1.155657 8.815543-1.155657 13.4016l0 534.273829c0 4.586057 0.404114 9.064229 1.155657 13.4016 0.129829 9.3952 2.505143 18.686171 7.389257 27.1488 10.218057 17.696914 29.034057 27.726629 49.632914 28.728686 0.1664 0.009143 0.334629 0.010971 0.501029 0.018286 0.771657 0.032914 1.543314 0.060343 2.320457 0.065829 0.142629 0.001829 0.2816 0.0128 0.424229 0.0128 0.241371 0 0.479086-0.018286 0.718629-0.020114 12.401371-0.095086 25.278171-3.4176 37.1968-10.296686l462.6944-267.136c12.682971-7.3216 22.4256-17.598171 28.692114-29.134629 0.223086-0.367543 0.4608-0.724114 0.676571-1.098971 5.176686-8.965486 7.533714-18.859886 7.389257-28.8256C1228.205714 505.967543 1225.848686 496.073143 1220.672 487.107657z"
    fill="#333333" p-id="1492"></path>
</svg>