<?xml version="1.0" standalone="no"?><!DOCTYPE svg PUBLIC "-//W3C//DTD SVG 1.1//EN" "http://www.w3.org/Graphics/SVG/1.1/DTD/svg11.dtd"><svg t="1722258748748" class="icon" viewBox="0 0 1024 1024" version="1.1" xmlns="http://www.w3.org/2000/svg" p-id="1257" xmlns:xlink="http://www.w3.org/1999/xlink" width="200" height="200"><path d="M512 949.138286c238.72 0 437.138286-197.997714 437.138286-437.138286 0-238.72-198.857143-437.138286-437.577143-437.138286C272.438857 74.861714 74.88 273.28 74.88 512c0 239.140571 197.997714 437.138286 437.138286 437.138286z m0-72.850286C309.705143 876.288 148.114286 714.276571 148.114286 512c0-201.874286 161.152-364.288 363.446857-364.288 201.856 0 364.269714 162.432 364.708571 364.288 0.420571 202.294857-162.432 364.288-364.288 364.288z m-151.277714-253.714286c0 25.709714 15.414857 41.142857 41.563428 41.142857h219.428572c25.709714 0 41.563429-15.433143 41.563428-41.142857V401.426286c0-25.289143-15.853714-40.704-41.563428-40.704H402.285714c-26.148571 0-41.563429 15.414857-41.563428 40.704z" p-id="1258"></path></svg>