<?xml version="1.0" encoding="UTF-8"?>
<!--
  ~ Licensed to the Apache Software Foundation (ASF) under one
  ~ or more contributor license agreements.  See the NOTICE file
  ~ distributed with this work for additional information
  ~ regarding copyright ownership.  The ASF licenses this file
  ~ to you under the Apache License, Version 2.0 (the
  ~ "License"); you may not use this file except in compliance
  ~ with the License.  You may obtain a copy of the License at
  ~
  ~   http://www.apache.org/licenses/LICENSE-2.0
  ~
  ~ Unless required by applicable law or agreed to in writing,
  ~ software distributed under the License is distributed on an
  ~ "AS IS" BASIS, WITHOUT WARRANTIES OR CONDITIONS OF ANY
  ~ KIND, either express or implied.  See the License for the
  ~ specific language governing permissions and limitations
  ~ under the License.
-->
<svg xmlns="http://www.w3.org/2000/svg" xmlns:xlink="http://www.w3.org/1999/xlink" width="16" height="16"
  viewBox="0 0 16 16" fill="none">
  <path
    d="M8.00016 14.6666C9.8411 14.6666 11.5078 13.9204 12.7142 12.714C13.9206 11.5075 14.6668 9.84085 14.6668 7.99992C14.6668 6.15899 13.9206 4.49232 12.7142 3.28587C11.5078 2.07945 9.8411 1.33325 8.00016 1.33325C6.15923 1.33325 4.49256 2.07945 3.28612 3.28587C2.07969 4.49232 1.3335 6.15899 1.3335 7.99992C1.3335 9.84085 2.07969 11.5075 3.28612 12.714C4.49256 13.9204 6.15923 14.6666 8.00016 14.6666Z"
    stroke="rgba(250, 173, 20, 1)" stroke-width="1.3333333333333333" stroke-linejoin="round">
  </path>
  <path stroke="rgba(250, 173, 20, 1)" stroke-width="1.3333333333333333" stroke-linejoin="round" stroke-linecap="round"
    d="M8 9.54159L8 8.20825C9.10457 8.20825 10 7.31282 10 6.20825C10 5.10369 9.10457 4.20825 8 4.20825C6.89543 4.20825 6 5.10369 6 6.20825">
  </path>
  <path
    d="M7.99984 12.5417C8.46007 12.5417 8.83317 12.1686 8.83317 11.7083C8.83317 11.2481 8.46007 10.875 7.99984 10.875C7.5396 10.875 7.1665 11.2481 7.1665 11.7083C7.1665 12.1686 7.5396 12.5417 7.99984 12.5417Z"
    fill-rule="evenodd" fill="#FAAD14">
  </path>
</svg>